<svg baseProfile="tiny" xmlns="http://www.w3.org/2000/svg" width="2670" height="310" preserveAspectRatio="xMaxYMax meet" viewBox="0 0 2670 310" ><circle fill="#A7967C" cx="15" cy="15" r="15"/><path fill="#fff" d="M16.5 7c.3 0 .5.1.5.3l-.2 10.9c0 .2-.2.3-.5.3h-2.7c-.3 0-.5-.1-.5-.3L13 7.3c0-.2.1-.3.5-.3h3zm-3.4 13.8c0-.3.2-.4.6-.4h2.6c.4 0 .6.1.6.4v1.8c0 .3-.2.4-.6.4h-2.6c-.4 0-.6-.1-.6-.4v-1.8z"/><g transform="translate(40)"><circle fill="#63C4AF" cx="30" cy="30" r="30"/><path fill="#fff" d="M32 41.5c-7.5 0-13.9-4.7-15.9-11.1-1.5 1.6-2.3 3.7-2.3 6 0 2 .7 3.9 1.8 5.4-.9 2.8-2.1 5.3-2.1 5.3s2.8-1.3 5.7-2.3c1.5.8 3.3 1.2 5.1 1.2 3.8 0 7.1-1.8 8.9-4.6-.4.1-.8.1-1.2.1zm14.7-.8s-1.6-3.4-2.9-7.3c1.5-2.1 2.4-4.5 2.4-7.2 0-7.2-6.4-13-14.2-13s-14.2 5.8-14.2 13 6.4 13 14.2 13c2.5 0 4.9-.6 7-1.7 3.9 1.3 7.7 3.2 7.7 3.2z"/></g><g transform="translate(110)"><circle fill="#459381" cx="30" cy="30" r="30"/><path fill="#fff" d="M32 41.5c-7.5 0-13.9-4.7-15.9-11.1-1.5 1.6-2.3 3.7-2.3 6 0 2 .7 3.9 1.8 5.4-.9 2.8-2.1 5.3-2.1 5.3s2.8-1.3 5.7-2.3c1.5.8 3.3 1.2 5.1 1.2 3.8 0 7.1-1.8 8.9-4.6-.4.1-.8.1-1.2.1zm14.7-.8s-1.6-3.4-2.9-7.3c1.5-2.1 2.4-4.5 2.4-7.2 0-7.2-6.4-13-14.2-13-7.8 0-14.2 5.8-14.2 13s6.4 13 14.2 13c2.5 0 4.9-.6 7-1.7 3.9 1.3 7.7 3.2 7.7 3.2z"/></g><g transform="translate(180)"><path fill="#A8967D" d="M20 0h160v100H20z"/><path fill="#65C4AF" d="M128 4h48v20h-48z"/><path fill="#F58220" d="M76 4h48v20H76z"/><path fill="#FFCE37" d="M24 4h48v20H24z"/><path fill="#fff" d="M128 28h48v20h-48zm-52 0h48v20H76zm-52 0h48v20H24zm104 24h48v20h-48zm-52 0h48v20H76zm-52 0h48v20H24zm104 24h48v20h-48zm-52 0h48v20H76zm-52 0h48v20H24z"/></g><g transform="translate(390)"><path fill="#A8967D" d="M5 0h40v25H5z"/><path fill="#65C4AF" d="M32 1h12v5H32z"/><path fill="#F48220" d="M19 1h12v5H19z"/><path fill="#FFCE37" d="M6 1h12v5H6z"/><path fill="#fff" d="M32 7h12v5H32zM19 7h12v5H19zM6 7h12v5H6zm26 6h12v5H32zm-13 0h12v5H19zM6 13h12v5H6zm26 6h12v5H32zm-13 0h12v5H19zM6 19h12v5H6z"/></g><g transform="translate(450)"><path fill="#EAE5DE" d="M15 0C6.7 0 0 6.7 0 15s6.7 15 15 15 15-6.7 15-15S23.3 0 15 0zm4.5 8.8h-2.1c-.7 0-.9.3-.9 1.1v1.9h3l-.2 3.2h-2.7v9.7h-3.9V15h-2v-3.3h2V9.1c0-2.4 1.3-3.7 4.2-3.7h2.7l-.1 3.4z"/></g><g transform="translate(490)"><path fill="#D3C1AF" d="M15 0C6.7 0 0 6.7 0 15s6.7 15 15 15 15-6.7 15-15S23.3 0 15 0zm4.5 8.8h-2.1c-.7 0-.9.3-.9 1.1v1.9h3l-.2 3.2h-2.7v9.7h-3.9V15h-2v-3.3h2V9.1c0-2.4 1.3-3.7 4.2-3.7h2.7l-.1 3.4z"/></g><g transform="translate(530)"><g fill="#817966"><path d="M.434 3.25l.013-.13.57-.28v-.062l-.163-.04v-.16l.17-.34.25-.014.476-.144.135-.397.577-.3.414-.014.705-.187H3.7l.562.32.793.16.827-.02.49.402.195.013.204-.076.16-.007.713.28.413-.15.007-.082-.074-.185.182-.122.108-.008.042.055.02.253.394.09.027-.096.102-.02.1.115-.012.103-.197.22-.59.04-.373.26-.556.157-.176.247-.18.32-.043.24.25.172.22.22.175.02v.142l-.108.233-.006.172.244-.028.257-.485.29-.186.034-.24.454-.63.38-.013.204.32-.026.098-.034.102.264.034.183-.24h.074l.047.493.25.574.028.15-.088.165-.53.254-.203.013-.06-.062-.415.008-.583.356v.09h.06l.38-.213.324-.02-.027.06-.102.11.014.207.236.11-.013.13-.34.074-.094.07v.067l-.076-.013-.014-.082.157-.09.007-.143-.292.075-.413.24-.15.245-.307.04-.298.426-.102.156-.108.02.047-.198h-.088l-.156.48-.4.3-.293.32-.047.357-.068.42-.027.156-.09.006-.107-.286-.014-.438-.17-.082-.263-.015-.19.05-.014.157-.183.015-.203-.09-.38-.006-.338.327-.23.418-.07.487.11.3.094.165.42.007.19-.31.45-.074v.163l-.334.59-.02.11.617.01-.077.56v.27l.116.054.066.13.136.082.13-.055.108-.06.096.04.074.096.007.048h.115l.13-.356.183-.054.203-.117.142-.1.068.02-.007.088-.08.062-.02.102-.047.054-.01.13.078.072.113-.042V11l.084-.184.106.014.308.256.24.045.15-.06.11-.016.06.02.103.178.176.176.134.112.194.216.458.1.162.173.143.177.08.25-.05.18-.077.12-.078.114.007.065.08.004v-.073l.172-.093.064-.038.113.01.013.056.006.062-.04.082-.08.03-.077.005v.102l.156-.006.104-.092.047-.15.107-.025.115.136.13.075.362.15.28.03.396.24.16.005.084.543-.478.664.064.298-.003.35-.156.513-.08.347-.422.163-.35.223-.05.546-.13.394-.14.366-.15.208-.116.01-.29-.177-.123-.01.32.407-.122.195-.11.154-.188.013-.137.055v.08l.065.036-.055.144-.162.063-.032.017v.096l.132.132-.052.284-.132.222.29.208-.002.123-.07.138-.005.28.08.206-.11.158v.1l-.09.01-.156-.126-.034-.15-.118-.025L7.735 20l-.075-.04-.053-.007.006-.085.1-.083.01-.113-.168-.487-.247-.143-.02-.134-.028-.19-.054-.145.03-.352.03-.02-.002-.44-.098-.157-.004-.465-.034-.217-.03-.224-.03-.267-.024-.267-.02-.227-.066-.232-.057-.1-.276-.248-.156-.13-.3-.33-.17-.237-.114-.207-.142-.274-.063-.135-.07-.188-.237-.15-.01-.332.135-.14.003-.09h-.1l-.004-.204.082-.362.322-.336.006-.455-.007-.19-.05-.14-.05-.05-.058-.007-.068.05-.017.145-.146.013-.243-.232-.223-.154-.096-.12-.018-.154-.09-.167-.076-.147-.155.007-.238-.176-.098-.065-.103-.077-.093-.134-.1-.07-.07.05-.13.06-.487-.27-.25-.16-.196-.16-.1-.17.03-.14-.02-.362-.21-.45L2.3 8.16l-.073-.288-.003-.393-.007-.2H2.17l-.05.146-.072.273-.02.18.054.18.13.416.094.376.003.096-.12-.008-.07-.222-.114-.195-.114-.222-.02-.157.08-.223-.057-.143-.03-.23-.028-.13-.01-.21-.193-.19-.007-.305.047-.335.13-.34.36-.608.226-.4.174-.23h.118l.027.086.06.01.003-.12.05-.302-.07-.185.003-.22.126-.4.125-.33.064-.166-.002-.092-.062.01-.075.04h-.1l-.04-.064-.024-.086-.04-.11-.136-.03-.172-.12-.078-.068h-.075l-.078.082-.132.07-.085.033-.088.01-.12-.008L1.74 2.8l.074-.076.088-.04.095-.077.088-.055.007-.06h-.078l-.217.098-.824.424-.34.174-.124.062zM0 3.31v-.108l.156-.04.11.054.005.068-.086.027zm2.496 1.144l-.014-.13.143.014.027.09.08.1v.2l-.046.006-.108-.116v-.143zm4.13 1.436l.082.007.108-.205.054-.007.068.075L7 5.754v-.13l-.116-.178-.19-.02-.047-.07-.02-.21-.13-.138-.217.048-.318.157.006.076.11.032.19-.04.155.053.142.048.007.103-.305.02-.122.09-.075.178-.102.218.028.11.183-.144.04-.172.14-.137.137-.04.115.047zm-.203.288v-.09l.19-.033.17-.035.175-.047.197-.04.102-.07.13-.013-.015.075-.15.09-.27.02-.082.088-.278.07zM9.468 5.2l.448-.322.1-.034.022.068-.068.185.068.09.027.218-.034.192-.174-.096-.13-.074h-.202L9.47 5.27zm2.34-5.042l.013.075-.33.212-.34.013-.36.123-.365.38-.17.02-.25.02-.1-.116L9.89.788l.182-.164.314-.13.27-.09.008-.067-.238-.042L10.1.33 9.935.3V.213l.25-.054.265-.09h.32l.156.102h.487l.3-.02zM8.11 2.88l-.087-.09v-.074l.252-.164h.135l.068.048v.15l.054.07.007.094-.09.015-.06-.11-.11-.02-.068.03-.02.063zm-2-1.375l.265-.013.163-.165.414-.122-.007-.062L6.695 1l-.23.067-.212.2-.203.156zM7.305.98v.19l.427-.013.183-.042.122-.143-.054-.144-.11-.007-.1.153h-.04l-.03-.02L7.61.84l-.122.02zm-.76.628v-.09l.312-.184.183-.014.298.124.183.06v.104l-.1.096.04.06.03.076-.04.035-.144.02-.095.082-.13-.034-.107-.055h-.258l-.264.02-.15-.115.008-.083.238-.02.156.035.008-.076-.136-.043M7.813 1.403l.25-.15.266.054-.03.11-.07.13-.12.122-.19-.008-.11-.11zm.563.067l.014.124.1.007.17-.08.21-.11V1.31l-.223.013-.135.043zM8.383 1l.034.21.08-.013.17-.116.007-.087-.08-.068-.104-.03-.086.035zm.535-.056L9 1.177l.325.09h.584l-.056-.138-.57-.01-.17-.217zm-.142.87l-.027-.186.364-.253.225.007.12.007.02.06-.027.06.07.097.29-.055.108.13.24.13.13.157-.03.11-.087.09v.053l.36.225-.022.102-.365.22-.108-.063-.08-.144-.042.013-.013.21-.198.378-.074.027-.128-.102L9.21 2.8h-.345l-.07-.067.17-.17h.287l.367-.378.115-.11-.06-.103-.36-.04-.3-.05zm-3.48 7.422v-.054L5.44 9.1l.515.02.576.403v.083l-.02.034H6.1l.04-.103-.074-.055-.135-.103-.103-.138zm.64.58l.216-.005-.014.125h-.136l-.074-.04zm.48.022l.007.048.183.007.156.027.047.02.134-.068.258-.027V9.77l-.142-.014-.155-.123-.197.034-.095.014.027.125-.21.007M7.406 9.852l.13-.007.054.082-.184.028-.068-.048zm.49.26l.06.157.1-.03.008-.09-.054-.046-.122-.02M7.942 10.324h.102l.006.246-.08-.013-.028-.103zM13.524 0l.977.028v.075l-.093.06-.203.042V.26l.114.062.157.075.128.096.156-.04.156-.09.25.013.17.02.014.083-.117.02-.27.11-.042.087-.27.15-.25.2.007.197.217.124v.067l-.15.206-.115.116h-.116l-.055-.054-.116.054.007.117.13.116v.07l-.136.012L14 2.018h-.056v.096l.163.07.11.012-.042.13-.298.02-.468.07-.525.205-.447.145-.605.76-.13.068-.182-.185-.21-.123V2.73l.293-.404.196-.35-.13-.293-.08-.403-.237-.185-.19.006H11l-.02-.175.143-.103.082.022h.196l.097-.075V.622l1.106-.465.19-.015.17.11.426-.02zm.332 2.75l.095-.095.104-.007.08.137h.103l.136-.06.257-.043.088.123-.04.185-.198.13-.32-.014-.202-.06V2.95l-.075-.037zm.957 2.217l.054-.116-.054-.033.047-.136.122-.204.156-.07h.143l.076.022-.08.177-.076.185-.163.205-.062-.007-.047-.042-.06.02zm.867-1.115v.055l-.04.054.11.05.046.096-.115.062.015.096.088.15.075.185.08.156.15.02-.006.103-.094.13-.217.06-.27.04-.218.05.014-.082.156-.048v-.07l-.047-.06.067-.16.157-.108.005-.164-.1-.028-.158-.17v-.22l.095-.184zm-.894 3.25V6.35l.02-.158.156-.05h.237l.23.056.114.02.136-.075-.033-.102.068-.114-.014-.233-.147-.095-.136-.07-.047-.04-.015-.095h.244l.026-.11-.048-.062.107-.006.062.09h.127l.258-.274.102-.05.068-.102.074-.047.026.097.048-.007-.007-.213.142-.04.183-.056.04-.155-.013-.233-.014-.122.11-.075.1-.02.035.122v.15l-.067.076v.13l.094.042.183.02.13-.006.156-.056.13-.012.162-.007.102.035.066-.014.048-.177.074-.185.062-.09.088.007.034.034.102-.04v-.09l-.04-.156.243-.028h.123l.142-.075L18.8 3.6l-.047-.015-.123.007-.1.034-.123.06-.163-.006-.175-.35v-.108l.15-.144.113-.137v-.17h-.068l-.095-.04-.123.13-.115.143-.008.095-.135.09-.11.232.07.17v.13l-.11.186-.075.185v.083l-.068.075-.082.048-.04.075-.122.008-.033-.144-.04-.137-.082-.067v-.15l-.048.013V3.79l-.12.07-.07.013-.047.068-.15.008-.08-.11V3.45l.183-.13.163-.158.324-.308.24-.24.31-.3.523-.356h.23l.217.103.13.06.352.14.305.212h.09l.06.096.055.026v.117l-.054.07-.142.007-.16-.082-.15-.055-.157-.047-.006.137.1.082.123.07.182.19h.122l.23-.24.075-.02.122-.11.026.048.11.007v-.13l-.07-.06V2.47l-.08-.048V2.3h.08l.15.095.007.143.06.007.23-.06.272-.11.216-.07.34-.095.34-.027.177.11.14-.015v-.09l-.107-.15-.088-.02-.007-.13.202-.205.035-.06.17-.015.034.055-.014.17.325.438v.16l-.122.06-.04.084h.17l.115-.103.006-.2h.176l.075-.02-.013-.073-.25-.075-.184-.13-.088-.19.407-.233.17-.145.23-.192.575-.184.23-.048.89-.008.134.04-.034.138-.19.26.013.027.067.006.326-.157.382-.02 1.295.224.148.027.326-.027.048-.13.07-.11.202.014.542.13.516-.02.366-.014.4.123.333-.007.374-.17.325.005.78.09.535.15.3.068.15.143v.068h-.123l-.164-.047h-.13l-.08.007-.073-.028-.07.02-.006.178.216.09.19.048.082.063-.02.102-.217.328v.062l-.297.027-.15.096.075.13.258.253.238.377.108.342V4.1l-.082-.007-.135-.156-.232-.24-.305-.267-.23-.15.006-.198.093-.138-.04-.226-.102-.184-.066-.007-.075.102h-.048l-.075-.055-.115.02-.02.185.08.17-.142.117-.25.04-.232.015-.23.014-.217.06-.054.063.008.477.175.192.088.006.034-.048h.135l.157.13.222.274.17.3.108.28.076.377.007.362-.326.11-.06.287-.026.245.143.226.19.267.04.068v.11l-.13.102-.113.062-.008-.124-.12-.212-.103-.185-.15-.11-.21-.21h-.055l-.13.14-.114-.047v-.13l.034-.054-.135-.016-.21.22-.008.116.135.13.286.02.142.04-.02.096-.075.035.014.166.27.444.137.287-.08.048.087.075.088.095v.514l-.142.19-.367.37-.32.21-.114.178h-.09l-.046-.116-.095-.076-.13.062-.147.362.034.144.306.28.21.24.014.458-.095.17-.102.132-.142.123-.06.11-.09.005-.005-.123-.054-.104-.1-.062-.124-.117-.015-.136-.107-.04-.1-.07-.042-.087h-.14l.06.356v.28l.13.28.12.19.15.227.1.232.083.15-.034.102-.09.008-.12-.13h-.06l-.22-.48-.108-.15-.19-.198-.007-.493-.027-.336-.102-.308-.122-.302-.068.02-.095.117-.115.04-.1-.046.04-.3-.244-.275-.13-.117-.02-.11-.006-.19h-.15l-.135.184-.108-.013-.047-.068-.13.06-.12.267-.17.226-.157.197-.23.337-.09.45-.047.316-.087.396-.095-.014-.102-.055-.122-.314-.156-.294-.272-.616-.102-.417-.027-.432h-.116l-.02.2-.074.026-.123-.067-.203-.212-.068-.122-.068-.116-.155-.15-.82-.007-.15-.048-.178-.07V8.61l-.102-.075-.15.02-.08.076h-.218l-.102-.102-.237-.224-.13-.137-.148.013-.082.095.02.07.163.142.083.158.08.034.02.102.07.02.1-.055.06.062v.184l.096.02.183.02.074-.1.088-.145h.128l-.006.17.027.11.11.047.142.027.075.04.05.084-.13.397-.184.24-.19.177-.135.083-.244.163-.176.178-.17.117-.474.11-.142.034-.144-.234-.06-.123-.06-.438-.347-.472-.514-.82-.143-.377-.068.075-.04-.013-.007-.04-.136-.008.034.13.075.218.258.5.218.35.006.238.285.294.067.308.08.048.198.205.183.2-.007.287.116.014.265-.07.427-.143.225-.034.012.11-.4.985-.346.464-.413.43-.32.398-.027.486.15.93.013.253-.277.3-.298.255-.252.212.068.328-.006.342-.312.205v.11l-.23.445-.326.375-.25.2-.26.033-.33.082-.157.13-.095-.014-.04-.074-.19-.14-.028-.35-.318-.573-.076-.52-.047-.252-.265-.595.007-.553.243-.48-.108-.67-.19-.404-.346-.526.06-.274.08-.233.015-.17-.19-.028h-.21l-.224-.32-.23.026-.516.137-.643.205-.25-.048-.563-.608-.407-.507-.135-.3v-.33l.088-.335-.006-.356.033-.28.333-.67.176-.206h.113l.27-.328.042-.225.048-.117.223-.157.082-.11.135-.22h.088l.13.07.156-.007.38-.144.312-.068.183-.04.184-.05h.264l.305.022-.013.163-.075.197.027.082.13.115.148.055.224.028.068.02.047.172.17.095.265.05h.1l.015-.098h-.047l.007-.123.143-.08.21-.05.115.09.15.11.203.13h.185l.122-.07.204-.04.095.006.122.014.062.04.073-.13.048-.143.06-.203v-.28l.05-.035v-.06l-.266.02-.19-.006-.217.027-.23.008-.094-.095-.062-.226-.06-.227h.123l.074-.075.06-.04h.096l.156-.028.066-.062.082-.054.082-.075h.174l.11.07.162.025.115.028.13.02.22-.005-.008-.138.034-.068-.074-.07h-.082l-.1-.08-.077-.07-.14-.08-.06-.07.02-.11.094-.095.068-.04V5.59l-.082-.02-.06.027-.286.143.08.082v.09l-.134.08h-.088l-.09-.087-.06-.2-.033-.054-.083.03-.17.075-.088.253-.095.178v.185l.054.104-.156.143h-.095l-.09-.062-.182.04-.034.104-.02.163V7.2l-.157.026-.1-.096v-.192l.08-.02-.115-.063-.074-.116-.088-.207-.115-.158-.15-.095-.21-.198-.128-.055-.075-.082-.04-.068h-.076l-.027.11.067.068.075.137.02.075.15.075.128.048v.096l.157.102.087.09.048.102h-.048l-.06-.06h-.048l-.02.238-.034.055h-.06l-.015-.192-.088-.11-.11-.114-.116-.09-.143-.012-.093-.055-.13-.213-.047-.11-.095-.075-.096.042-.15.165-.13.025-.068-.075-.17.075-.033.138-.346.295L15.75 7l-.158.26-.094-.008-.123-.055-.108.028-.156.027-.14-.068-.096-.02zm2.094-.932l-.094.11.014.138v.047h.102l.027-.04v-.13zm-.114.44l.054-.05.095-.02.007.055-.034.103.027.02-.04.096-.055.014-.034-.034-.027-.11zm.516.382l.013.04.128.09.103.09.122-.015.013-.143-.066-.076h-.108zm1.268.404v-.048l.122.048.237-.007.02.046-.124.06-.074-.046-.08-.02zm1.064.068l.075-.116.202-.06.02.074-.068.09-.115.067-.07.005zm.996-5.85l-.052.288.278.048.067.048.237-.007v-.053l-.176-.04-.04-.056-.062-.24zm.09-.074l.21-.007.11-.103h.038l.123-.096h.117l.238-.177.006-.178-.06-.01-.23.22h-.122l-.177-.014-.08.095-.06.098-.09.012zm9.712 2.346l.02-.068.088.007.068.068.122.178.136.146h.067l.24.26.1.054-.013.054-.035.075.096.17.083.075.088.068v.096h-.06v.033h-.075l-.088-.212-.122-.075-.094-.136-.163-.2-.176-.198-.162-.273zm1.018 1.45l.013-.068.108-.048.083.04h.096l.14.03.06.026.098.082v.116l-.083.09-.026.068-.09.013-.067-.047h-.068l-.007.137h-.108l-.062-.09-.04-.082.02-.08.033-.064-.01-.05zm.223.527l.11-.007.12.11.136.22.08.266.06.178-.033.253-.177.02-.1-.102h-.19l-.183.11-.007.186-.122.054-.123-.02-.012-.09.12-.15.286-.212.005-.172h.06l.104.042.06-.206-.096-.082-.075-.24zM31.18 7.34l.1.008.013.06.035.125.046.075.096-.007.068-.107-.088-.117-.082-.164-.115-.013-.07.02-.02.095M31.55 7.06l.137-.013.068-.04.095-.097-.075-.034-.136.027-.07.055zm-4.394-3.01l.054-.06.034.06-.007.288-.047.137-.075.088-.1.028v-.08l.1-.096.055-.15zm-5.364 1.752h-.068l-.02.082-.082.048-.06.047.02.06.08.062.164.225v.212l.115.095.097.144.047.184.068.09-.005.067-.122.076h-.096l-.245-.137-.156-.04v-.227l.08-.233-.18-.197-.28-.3-.008-.2.19-.157.272-.09.102-.034.094.02.048.062-.007.083zm.793-.247h.156l.03.048.026.247-.073.143-.11.034h-.13l-.04-.157.008-.157.076-.082zm1.472.048l-.07.014.016.082.06.02.055.06.054.007.02-.09V5.63l.19-.006.15-.014.128-.04V5.5h-.1l-.055.035-.075-.02-.094-.035-.07-.027h-.088l-.067.055zm-4.26 7.074l.17-.06.088.005.11.035-.008.054-.055.09-.073.104v.17l-.138.015-.122-.11zm-.317.663l-.008.31.115.225.075.007v-.144l-.095-.178v-.137l-.027-.096zm.5.802l.082-.028.007.15.03.315.03.23-.07-.026-.047-.082-.013-.17.008-.228zm1.276 1.51l.007-.183-.047-.02.073-.283.195-.15.116-.09.103-.164.258-.28.054-.014.008.205.006.423-.26.71-.155.583-.258.09-.14.007-.11-.24-.014-.232zm1.356.118l.014.095.075.048h.09l.013-.062-.1-.08zm.332-.138h.048l.02.083-.04.068-.068-.007zm7.65-7.052l.11-.028.054.178v.082l.055.26h-.096l-.122-.11-.054-.164zm.15 1.04l.19-.014.136.178-.082.218.082.26.19.055.162.137.028.096h-.11l-.16-.165-.218.014-.19-.276-.028-.136.054-.07-.026-.19zm-4.814 1.518l.15.233.12.138-.08.192-.205.054-.095-.178.027-.205.042-.162zm2.033.656l.448.37.41.438.257.288.163.19-.03.206v.164l-.175.04-.298-.286-.34-.547-.257-.383-.204-.3h-.08l-.014-.124zm1.087 1.903l.067-.123.216-.07.164.07.324.04.193.083.216.178.054.177-.136-.013-.135-.084-.19-.014-.176-.068-.326-.083-.11-.094zm1.86-2.847l-.034.156-.096.172h-.083l.01-.13.08-.1.033-.097.08-.022"/><path d="M31.2 10.705l.154.024v.07l-.074.107-.09.025-.023-.122zm-.138.58l.065-.1.082-.05h.054l.056-.023.05-.097h.09l.03.09.066.12-.153.247-.154.008-.01-.14-.025-.03-.12.007zm-.39.293l.083.073.056.076.075.106-.137.124-.04.21.096.132.056.18-.146.147-.13.294-.112.293-.08.066h-.155l-.437-.205-.09-.278-.056-.27v-.146h.065l.362-.235.227-.27.12-.164.04-.137zm1.426.677l.054.09v.22l-.046.123h-.056l-.065-.114-.008-.13.016-.13.073-.075zm-.478.172l.057-.008.01.055-.066.074-.16.007-.332.024-.04.263.17-.082.138-.073.113.017-.01.065-.08.007-.16.122-.018.114.122.163.033.114-.066.116-.154.04-.008-.114-.015-.253h-.09l-.032.146.04.262-.014.04h-.114v-.238l-.064-.146v-.262L31 12.54l.072-.107h.187l.022.058h.172zm-1.205 1.633l.065-.09.08-.04h.203l.017.073-.074.065zm.51-.09v.073l.073.058.177-.006.17-.123.01-.09h-.066l-.124.075zm.478.188v.13l.113-.016.105-.073.188-.1.057-.024v-.09h-.073l-.17.056-.104.034-.033.065zm.663-1.094l.153.016.13.066.007.073-.162.014-.122-.057zm.38-.244l.13.317.194.04.227.205.218.147.057.096.008.253.212.162.21.05.128.065.18-.22.088-.01.17.206.088.17.18.083.177.01.024-.11-.178-.252-.107-.17-.032-.083.033-.113-.3-.253-.267-.204-.194-.073-.218-.097-.3-.058-.178.115-.146.016.01-.098v-.122l-.033-.058-.122-.057-.105-.04-.065.015zm2.097.864h.373l.097-.13v-.245l-.065.006-.017.098-.046.09v.057h-.05l-.07-.056h-.05l-.025.05-.073.015-.057.05zm-.818.72h.073l.025.62.064.596.26.66.145.794-.194.472-.437.71-.565.614-.12.065-.17.032-.138.115-.14.057-.104-.027v-.09h-.12l-.09.123-.106-.082-.137-.213-.05-.25-.065-.238.17-.148.01-.08h-.09l-.18.088-.03.108-.082.033-.016-.155.007-.245-.096-.097-.704.023-.54.105-.496.22-.186.033-.122.006-.13-.17.178-.62.106-.68.056-.602.51-.27.446-.082.59-.546.373-.336.184-.008v.122h.235l-.08-.098.014-.106.138-.05.194-.244.097-.122h.113l.097.09.252.04.04.098-.146.376.015.147.09.098.25.255.146-.026.21-.416.06-.334.08-.253zm-1.627 5.013l.09-.017.072.065.122-.04h.073l.057.007.023.13-.153.13-.04.084-.105.09-.14.015-.12-.013v-.173l.073-.194.008-.1zm3.612-.687l.062.09.05.327v.18l.178.032v.112l-.162-.008-.16.115-.18.195-.12.163-.13-.025.016-.155.056-.205.154-.074.12-.163.05-.245.024-.252zm-.665 1.013l.105.123.008.137-.178.067-.3.097-.226.18-.13.09-.097.14-.104.055-.21.008-.098-.015-.025-.164.122-.08.3-.096.186-.157.25-.106.194-.21z"/></g></g><g transform="translate(580)"><g fill="#fff"><path d="M.434 3.25l.013-.13.57-.28v-.062l-.163-.04v-.16l.17-.34.25-.014.476-.144.135-.397.577-.3.414-.014.705-.187H3.7l.562.32.793.16.827-.02.49.402.195.013.204-.076.16-.007.713.28.413-.15.007-.082-.074-.185.182-.122.108-.008.042.055.02.253.394.09.027-.096.102-.02.1.115-.012.103-.197.22-.59.04-.373.26-.556.157-.176.247-.18.32-.043.24.25.172.22.22.175.02v.142l-.108.233-.006.172.244-.028.257-.485.29-.186.034-.24.454-.63.38-.013.204.32-.026.098-.034.102.264.034.183-.24h.074l.047.493.25.574.028.15-.088.165-.53.254-.203.013-.06-.062-.415.008-.583.356v.09h.06l.38-.213.324-.02-.027.06-.102.11.014.207.236.11-.013.13-.34.074-.094.07v.067l-.076-.013-.014-.082.157-.09.007-.143-.292.075-.413.24-.15.245-.307.04-.298.426-.102.156-.108.02.047-.198h-.088l-.156.48-.4.3-.293.32-.047.357-.068.42-.027.156-.09.006-.107-.286-.014-.438-.17-.082-.263-.015-.19.05-.014.157-.183.015-.203-.09-.38-.006-.338.327-.23.418-.07.487.11.3.094.165.42.007.19-.31.45-.074v.163l-.334.59-.02.11.617.01-.077.56v.27l.116.054.066.13.136.082.13-.055.108-.06.096.04.074.096.007.048h.115l.13-.356.183-.054.203-.117.142-.1.068.02-.007.088-.08.062-.02.102-.047.054-.01.13.078.072.113-.042V11l.084-.184.106.014.308.256.24.045.15-.06.11-.016.06.02.103.178.176.176.134.112.194.216.458.1.162.173.143.177.08.25-.05.18-.077.12-.078.114.007.065.08.004v-.073l.172-.093.064-.038.113.01.013.056.006.062-.04.082-.08.03-.077.005v.102l.156-.006.104-.092.047-.15.107-.025.115.136.13.075.362.15.28.03.396.24.16.005.084.543-.478.664.064.298-.003.35-.156.513-.08.347-.422.163-.35.223-.05.546-.13.394-.14.366-.15.208-.116.01-.29-.177-.123-.01.32.407-.122.195-.11.154-.188.013-.137.055v.08l.065.036-.055.144-.162.063-.032.017v.096l.132.132-.052.284-.132.222.29.208-.002.123-.07.138-.005.28.08.206-.11.158v.1l-.09.01-.156-.126-.034-.15-.118-.025L7.735 20l-.075-.04-.053-.007.006-.085.1-.083.01-.113-.168-.487-.247-.143-.02-.134-.028-.19-.054-.145.03-.352.03-.02-.002-.44-.098-.157-.004-.465-.034-.217-.03-.224-.03-.267-.024-.267-.02-.227-.066-.232-.057-.1-.276-.248-.156-.13-.3-.33-.17-.237-.114-.207-.142-.274-.063-.135-.07-.188-.237-.15-.01-.332.135-.14.003-.09h-.1l-.004-.204.082-.362.322-.336.006-.455-.007-.19-.05-.14-.05-.05-.058-.007-.068.05-.017.145-.146.013-.243-.232-.223-.154-.096-.12-.018-.154-.09-.167-.076-.147-.155.007-.238-.176-.098-.065-.103-.077-.093-.134-.1-.07-.07.05-.13.06-.487-.27-.25-.16-.196-.16-.1-.17.03-.14-.02-.362-.21-.45L2.3 8.16l-.073-.288-.003-.393-.007-.2H2.17l-.05.146-.072.273-.02.18.054.18.13.416.094.376.003.096-.12-.008-.07-.222-.114-.195-.114-.222-.02-.157.08-.223-.057-.143-.03-.23-.028-.13-.01-.21-.193-.19-.007-.305.047-.335.13-.34.36-.608.226-.4.174-.23h.118l.027.086.06.01.003-.12.05-.302-.07-.185.003-.22.126-.4.125-.33.064-.166-.002-.092-.062.01-.075.04h-.1l-.04-.064-.024-.086-.04-.11-.136-.03-.172-.12-.078-.068h-.075l-.078.082-.132.07-.085.033-.088.01-.12-.008L1.74 2.8l.074-.076.088-.04.095-.077.088-.055.007-.06h-.078l-.217.098-.824.424-.34.174-.124.062zM0 3.31v-.108l.156-.04.11.054.005.068-.086.027zm2.496 1.144l-.014-.13.143.014.027.09.08.1v.2l-.046.006-.108-.116v-.143zm4.13 1.436l.082.007.108-.205.054-.007.068.075L7 5.754v-.13l-.116-.178-.19-.02-.047-.07-.02-.21-.13-.138-.217.048-.318.157.006.076.11.032.19-.04.155.053.142.048.007.103-.305.02-.122.09-.075.178-.102.218.028.11.183-.144.04-.172.14-.137.137-.04.115.047zm-.203.288v-.09l.19-.033.17-.035.175-.047.197-.04.102-.07.13-.013-.015.075-.15.09-.27.02-.082.088-.278.07zM9.468 5.2l.448-.322.1-.034.022.068-.068.185.068.09.027.218-.034.192-.174-.096-.13-.074h-.202L9.47 5.27zm2.34-5.042l.013.075-.33.212-.34.013-.36.123-.365.38-.17.02-.25.02-.1-.116L9.89.788l.182-.164.314-.13.27-.09.008-.067-.238-.042L10.1.33 9.935.3V.213l.25-.054.265-.09h.32l.156.102h.487l.3-.02zM8.11 2.88l-.087-.09v-.074l.252-.164h.135l.068.048v.15l.054.07.007.094-.09.015-.06-.11-.11-.02-.068.03-.02.063zm-2-1.375l.265-.013.163-.165.414-.122-.007-.062L6.695 1l-.23.067-.212.2-.203.156zM7.305.98v.19l.427-.013.183-.042.122-.143-.054-.144-.11-.007-.1.153h-.04l-.03-.02L7.61.84l-.122.02zm-.76.628v-.09l.312-.184.183-.014.298.124.183.06v.104l-.1.096.04.06.03.076-.04.035-.144.02-.095.082-.13-.034-.107-.055h-.258l-.264.02-.15-.115.008-.083.238-.02.156.035.008-.076-.136-.043M7.813 1.403l.25-.15.266.054-.03.11-.07.13-.12.122-.19-.008-.11-.11zm.563.067l.014.124.1.007.17-.08.21-.11V1.31l-.223.013-.135.043zM8.383 1l.034.21.08-.013.17-.116.007-.087-.08-.068-.104-.03-.086.035zm.535-.056L9 1.177l.325.09h.584l-.056-.138-.57-.01-.17-.217zm-.142.87l-.027-.186.364-.253.225.007.12.007.02.06-.027.06.07.097.29-.055.108.13.24.13.13.157-.03.11-.087.09v.053l.36.225-.022.102-.365.22-.108-.063-.08-.144-.042.013-.013.21-.198.378-.074.027-.128-.102L9.21 2.8h-.345l-.07-.067.17-.17h.287l.367-.378.115-.11-.06-.103-.36-.04-.3-.05zm-3.48 7.422v-.054L5.44 9.1l.515.02.576.403v.083l-.02.034H6.1l.04-.103-.074-.055-.135-.103-.103-.138zm.64.58l.216-.005-.014.125h-.136l-.074-.04zm.48.022l.007.048.183.007.156.027.047.02.134-.068.258-.027V9.77l-.142-.014-.155-.123-.197.034-.095.014.027.125-.21.007M7.406 9.852l.13-.007.054.082-.184.028-.068-.048zm.49.26l.06.157.1-.03.008-.09-.054-.046-.122-.02M7.942 10.324h.102l.006.246-.08-.013-.028-.103zM13.524 0l.977.028v.075l-.093.06-.203.042V.26l.114.062.157.075.128.096.156-.04.156-.09.25.013.17.02.014.083-.117.02-.27.11-.042.087-.27.15-.25.2.007.197.217.124v.067l-.15.206-.115.116h-.116l-.055-.054-.116.054.007.117.13.116v.07l-.136.012L14 2.018h-.056v.096l.163.07.11.012-.042.13-.298.02-.468.07-.525.205-.447.145-.605.76-.13.068-.182-.185-.21-.123V2.73l.293-.404.196-.35-.13-.293-.08-.403-.237-.185-.19.006H11l-.02-.175.143-.103.082.022h.196l.097-.075V.622l1.106-.465.19-.015.17.11.426-.02zm.332 2.75l.095-.095.104-.007.08.137h.103l.136-.06.257-.043.088.123-.04.185-.198.13-.32-.014-.202-.06V2.95l-.075-.037zm.957 2.217l.054-.116-.054-.033.047-.136.122-.204.156-.07h.143l.076.022-.08.177-.076.185-.163.205-.062-.007-.047-.042-.06.02zm.867-1.115v.055l-.04.054.11.05.046.096-.115.062.015.096.088.15.075.185.08.156.15.02-.006.103-.094.13-.217.06-.27.04-.218.05.014-.082.156-.048v-.07l-.047-.06.067-.16.157-.108.005-.164-.1-.028-.158-.17v-.22l.095-.184zm-.894 3.25V6.35l.02-.158.156-.05h.237l.23.056.114.02.136-.075-.033-.102.068-.114-.014-.233-.147-.095-.136-.07-.047-.04-.015-.095h.244l.026-.11-.048-.062.107-.006.062.09h.127l.258-.274.102-.05.068-.102.074-.047.026.097.048-.007-.007-.213.142-.04.183-.056.04-.155-.013-.233-.014-.122.11-.075.1-.02.035.122v.15l-.067.076v.13l.094.042.183.02.13-.006.156-.056.13-.012.162-.007.102.035.066-.014.048-.177.074-.185.062-.09.088.007.034.034.102-.04v-.09l-.04-.156.243-.028h.123l.142-.075L18.8 3.6l-.047-.015-.123.007-.1.034-.123.06-.163-.006-.175-.35v-.108l.15-.144.113-.137v-.17h-.068l-.095-.04-.123.13-.115.143-.008.095-.135.09-.11.232.07.17v.13l-.11.186-.075.185v.083l-.068.075-.082.048-.04.075-.122.008-.033-.144-.04-.137-.082-.067v-.15l-.048.013V3.79l-.12.07-.07.013-.047.068-.15.008-.08-.11V3.45l.183-.13.163-.158.324-.308.24-.24.31-.3.523-.356h.23l.217.103.13.06.352.14.305.212h.09l.06.096.055.026v.117l-.054.07-.142.007-.16-.082-.15-.055-.157-.047-.006.137.1.082.123.07.182.19h.122l.23-.24.075-.02.122-.11.026.048.11.007v-.13l-.07-.06V2.47l-.08-.048V2.3h.08l.15.095.007.143.06.007.23-.06.272-.11.216-.07.34-.095.34-.027.177.11.14-.015v-.09l-.107-.15-.088-.02-.007-.13.202-.205.035-.06.17-.015.034.055-.014.17.325.438v.16l-.122.06-.04.084h.17l.115-.103.006-.2h.176l.075-.02-.013-.073-.25-.075-.184-.13-.088-.19.407-.233.17-.145.23-.192.575-.184.23-.048.89-.008.134.04-.034.138-.19.26.013.027.067.006.326-.157.382-.02 1.295.224.148.027.326-.027.048-.13.07-.11.202.014.542.13.516-.02.366-.014.4.123.333-.007.374-.17.325.005.78.09.535.15.3.068.15.143v.068h-.123l-.164-.047h-.13l-.08.007-.073-.028-.07.02-.006.178.216.09.19.048.082.063-.02.102-.217.328v.062l-.297.027-.15.096.075.13.258.253.238.377.108.342V4.1l-.082-.007-.135-.156-.232-.24-.305-.267-.23-.15.006-.198.093-.138-.04-.226-.102-.184-.066-.007-.075.102h-.048l-.075-.055-.115.02-.02.185.08.17-.142.117-.25.04-.232.015-.23.014-.217.06-.054.063.008.477.175.192.088.006.034-.048h.135l.157.13.222.274.17.3.108.28.076.377.007.362-.326.11-.06.287-.026.245.143.226.19.267.04.068v.11l-.13.102-.113.062-.008-.124-.12-.212-.103-.185-.15-.11-.21-.21h-.055l-.13.14-.114-.047v-.13l.034-.054-.135-.016-.21.22-.008.116.135.13.286.02.142.04-.02.096-.075.035.014.166.27.444.137.287-.08.048.087.075.088.095v.514l-.142.19-.367.37-.32.21-.114.178h-.09l-.046-.116-.095-.076-.13.062-.147.362.034.144.306.28.21.24.014.458-.095.17-.102.132-.142.123-.06.11-.09.005-.005-.123-.054-.104-.1-.062-.124-.117-.015-.136-.107-.04-.1-.07-.042-.087h-.14l.06.356v.28l.13.28.12.19.15.227.1.232.083.15-.034.102-.09.008-.12-.13h-.06l-.22-.48-.108-.15-.19-.198-.007-.493-.027-.336-.102-.308-.122-.302-.068.02-.095.117-.115.04-.1-.046.04-.3-.244-.275-.13-.117-.02-.11-.006-.19h-.15l-.135.184-.108-.013-.047-.068-.13.06-.12.267-.17.226-.157.197-.23.337-.09.45-.047.316-.087.396-.095-.014-.102-.055-.122-.314-.156-.294-.272-.616-.102-.417-.027-.432h-.116l-.02.2-.074.026-.123-.067-.203-.212-.068-.122-.068-.116-.155-.15-.82-.007-.15-.048-.178-.07V8.61l-.102-.075-.15.02-.08.076h-.218l-.102-.102-.237-.224-.13-.137-.148.013-.082.095.02.07.163.142.083.158.08.034.02.102.07.02.1-.055.06.062v.184l.096.02.183.02.074-.1.088-.145h.128l-.006.17.027.11.11.047.142.027.075.04.05.084-.13.397-.184.24-.19.177-.135.083-.244.163-.176.178-.17.117-.474.11-.142.034-.144-.234-.06-.123-.06-.438-.347-.472-.514-.82-.143-.377-.068.075-.04-.013-.007-.04-.136-.008.034.13.075.218.258.5.218.35.006.238.285.294.067.308.08.048.198.205.183.2-.007.287.116.014.265-.07.427-.143.225-.034.012.11-.4.985-.346.464-.413.43-.32.398-.027.486.15.93.013.253-.277.3-.298.255-.252.212.068.328-.006.342-.312.205v.11l-.23.445-.326.375-.25.2-.26.033-.33.082-.157.13-.095-.014-.04-.074-.19-.14-.028-.35-.318-.573-.076-.52-.047-.252-.265-.595.007-.553.243-.48-.108-.67-.19-.404-.346-.526.06-.274.08-.233.015-.17-.19-.028h-.21l-.224-.32-.23.026-.516.137-.643.205-.25-.048-.563-.608-.407-.507-.135-.3v-.33l.088-.335-.006-.356.033-.28.333-.67.176-.206h.113l.27-.328.042-.225.048-.117.223-.157.082-.11.135-.22h.088l.13.07.156-.007.38-.144.312-.068.183-.04.184-.05h.264l.305.022-.013.163-.075.197.027.082.13.115.148.055.224.028.068.02.047.172.17.095.265.05h.1l.015-.098h-.047l.007-.123.143-.08.21-.05.115.09.15.11.203.13h.185l.122-.07.204-.04.095.006.122.014.062.04.073-.13.048-.143.06-.203v-.28l.05-.035v-.06l-.266.02-.19-.006-.217.027-.23.008-.094-.095-.062-.226-.06-.227h.123l.074-.075.06-.04h.096l.156-.028.066-.062.082-.054.082-.075h.174l.11.07.162.025.115.028.13.02.22-.005-.008-.138.034-.068-.074-.07h-.082l-.1-.08-.077-.07-.14-.08-.06-.07.02-.11.094-.095.068-.04V5.59l-.082-.02-.06.027-.286.143.08.082v.09l-.134.08h-.088l-.09-.087-.06-.2-.033-.054-.083.03-.17.075-.088.253-.095.178v.185l.054.104-.156.143h-.095l-.09-.062-.182.04-.034.104-.02.163V7.2l-.157.026-.1-.096v-.192l.08-.02-.115-.063-.074-.116-.088-.207-.115-.158-.15-.095-.21-.198-.128-.055-.075-.082-.04-.068h-.076l-.027.11.067.068.075.137.02.075.15.075.128.048v.096l.157.102.087.09.048.102h-.048l-.06-.06h-.048l-.02.238-.034.055h-.06l-.015-.192-.088-.11-.11-.114-.116-.09-.143-.012-.093-.055-.13-.213-.047-.11-.095-.075-.096.042-.15.165-.13.025-.068-.075-.17.075-.033.138-.346.295L15.75 7l-.158.26-.094-.008-.123-.055-.108.028-.156.027-.14-.068-.096-.02zm2.094-.932l-.094.11.014.138v.047h.102l.027-.04v-.13zm-.114.44l.054-.05.095-.02.007.055-.034.103.027.02-.04.096-.055.014-.034-.034-.027-.11zm.516.382l.013.04.128.09.103.09.122-.015.013-.143-.066-.076h-.108zm1.268.404v-.048l.122.048.237-.007.02.046-.124.06-.074-.046-.08-.02zm1.064.068l.075-.116.202-.06.02.074-.068.09-.115.067-.07.005zm.996-5.85l-.052.288.278.048.067.048.237-.007v-.053l-.176-.04-.04-.056-.062-.24zm.09-.074l.21-.007.11-.103h.038l.123-.096h.117l.238-.177.006-.178-.06-.01-.23.22h-.122l-.177-.014-.08.095-.06.098-.09.012zm9.712 2.346l.02-.068.088.007.068.068.122.178.136.146h.067l.24.26.1.054-.013.054-.035.075.096.17.083.075.088.068v.096h-.06v.033h-.075l-.088-.212-.122-.075-.094-.136-.163-.2-.176-.198-.162-.273zm1.018 1.45l.013-.068.108-.048.083.04h.096l.14.03.06.026.098.082v.116l-.083.09-.026.068-.09.013-.067-.047h-.068l-.007.137h-.108l-.062-.09-.04-.082.02-.08.033-.064-.01-.05zm.223.527l.11-.007.12.11.136.22.08.266.06.178-.033.253-.177.02-.1-.102h-.19l-.183.11-.007.186-.122.054-.123-.02-.012-.09.12-.15.286-.212.005-.172h.06l.104.042.06-.206-.096-.082-.075-.24zM31.18 7.34l.1.008.013.06.035.125.046.075.096-.007.068-.107-.088-.117-.082-.164-.115-.013-.07.02-.02.095M31.55 7.06l.137-.013.068-.04.095-.097-.075-.034-.136.027-.07.055zm-4.394-3.01l.054-.06.034.06-.007.288-.047.137-.075.088-.1.028v-.08l.1-.096.055-.15zm-5.364 1.752h-.068l-.02.082-.082.048-.06.047.02.06.08.062.164.225v.212l.115.095.097.144.047.184.068.09-.005.067-.122.076h-.096l-.245-.137-.156-.04v-.227l.08-.233-.18-.197-.28-.3-.008-.2.19-.157.272-.09.102-.034.094.02.048.062-.007.083zm.793-.247h.156l.03.048.026.247-.073.143-.11.034h-.13l-.04-.157.008-.157.076-.082zm1.472.048l-.07.014.016.082.06.02.055.06.054.007.02-.09V5.63l.19-.006.15-.014.128-.04V5.5h-.1l-.055.035-.075-.02-.094-.035-.07-.027h-.088l-.067.055zm-4.26 7.074l.17-.06.088.005.11.035-.008.054-.055.09-.073.104v.17l-.138.015-.122-.11zm-.317.663l-.008.31.115.225.075.007v-.144l-.095-.178v-.137l-.027-.096zm.5.802l.082-.028.007.15.03.315.03.23-.07-.026-.047-.082-.013-.17.008-.228zm1.276 1.51l.007-.183-.047-.02.073-.283.195-.15.116-.09.103-.164.258-.28.054-.014.008.205.006.423-.26.71-.155.583-.258.09-.14.007-.11-.24-.014-.232zm1.356.118l.014.095.075.048h.09l.013-.062-.1-.08zm.332-.138h.048l.02.083-.04.068-.068-.007zm7.65-7.052l.11-.028.054.178v.082l.055.26h-.096l-.122-.11-.054-.164zm.15 1.04l.19-.014.136.178-.082.218.082.26.19.055.162.137.028.096h-.11l-.16-.165-.218.014-.19-.276-.028-.136.054-.07-.026-.19zm-4.814 1.518l.15.233.12.138-.08.192-.205.054-.095-.178.027-.205.042-.162zm2.033.656l.448.37.41.438.257.288.163.19-.03.206v.164l-.175.04-.298-.286-.34-.547-.257-.383-.204-.3h-.08l-.014-.124zm1.087 1.903l.067-.123.216-.07.164.07.324.04.193.083.216.178.054.177-.136-.013-.135-.084-.19-.014-.176-.068-.326-.083-.11-.094zm1.86-2.847l-.034.156-.096.172h-.083l.01-.13.08-.1.033-.097.08-.022"/><path d="M31.2 10.705l.154.024v.07l-.074.107-.09.025-.023-.122zm-.138.58l.065-.1.082-.05h.054l.056-.023.05-.097h.09l.03.09.066.12-.153.247-.154.008-.01-.14-.025-.03-.12.007zm-.39.293l.083.073.056.076.075.106-.137.124-.04.21.096.132.056.18-.146.147-.13.294-.112.293-.08.066h-.155l-.437-.205-.09-.278-.056-.27v-.146h.065l.362-.235.227-.27.12-.164.04-.137zm1.426.677l.054.09v.22l-.046.123h-.056l-.065-.114-.008-.13.016-.13.073-.075zm-.478.172l.057-.008.01.055-.066.074-.16.007-.332.024-.04.263.17-.082.138-.073.113.017-.01.065-.08.007-.16.122-.018.114.122.163.033.114-.066.116-.154.04-.008-.114-.015-.253h-.09l-.032.146.04.262-.014.04h-.114v-.238l-.064-.146v-.262L31 12.54l.072-.107h.187l.022.058h.172zm-1.205 1.633l.065-.09.08-.04h.203l.017.073-.074.065zm.51-.09v.073l.073.058.177-.006.17-.123.01-.09h-.066l-.124.075zm.478.188v.13l.113-.016.105-.073.188-.1.057-.024v-.09h-.073l-.17.056-.104.034-.033.065zm.663-1.094l.153.016.13.066.007.073-.162.014-.122-.057zm.38-.244l.13.317.194.04.227.205.218.147.057.096.008.253.212.162.21.05.128.065.18-.22.088-.01.17.206.088.17.18.083.177.01.024-.11-.178-.252-.107-.17-.032-.083.033-.113-.3-.253-.267-.204-.194-.073-.218-.097-.3-.058-.178.115-.146.016.01-.098v-.122l-.033-.058-.122-.057-.105-.04-.065.015zm2.097.864h.373l.097-.13v-.245l-.065.006-.017.098-.046.09v.057h-.05l-.07-.056h-.05l-.025.05-.073.015-.057.05zm-.818.72h.073l.025.62.064.596.26.66.145.794-.194.472-.437.71-.565.614-.12.065-.17.032-.138.115-.14.057-.104-.027v-.09h-.12l-.09.123-.106-.082-.137-.213-.05-.25-.065-.238.17-.148.01-.08h-.09l-.18.088-.03.108-.082.033-.016-.155.007-.245-.096-.097-.704.023-.54.105-.496.22-.186.033-.122.006-.13-.17.178-.62.106-.68.056-.602.51-.27.446-.082.59-.546.373-.336.184-.008v.122h.235l-.08-.098.014-.106.138-.05.194-.244.097-.122h.113l.097.09.252.04.04.098-.146.376.015.147.09.098.25.255.146-.026.21-.416.06-.334.08-.253zm-1.627 5.013l.09-.017.072.065.122-.04h.073l.057.007.023.13-.153.13-.04.084-.105.09-.14.015-.12-.013v-.173l.073-.194.008-.1zm3.612-.687l.062.09.05.327v.18l.178.032v.112l-.162-.008-.16.115-.18.195-.12.163-.13-.025.016-.155.056-.205.154-.074.12-.163.05-.245.024-.252zm-.665 1.013l.105.123.008.137-.178.067-.3.097-.226.18-.13.09-.097.14-.104.055-.21.008-.098-.015-.025-.164.122-.08.3-.096.186-.157.25-.106.194-.21z"/></g></g><g transform="translate(630)"><path fill="#EAE5DE" d="M15 0C6.7 0 0 6.7 0 15s6.7 15 15 15 15-6.7 15-15S23.3 0 15 0zm-3.3 20.6h-3v-9.5h2.9v9.5zM10.2 9.9c-.9 0-1.7-.8-1.7-1.7 0-1 .8-1.7 1.7-1.7.9 0 1.7.8 1.7 1.7 0 .9-.8 1.7-1.7 1.7zm12.5 10.7h-2.9v-5c0-1.4-.5-2.1-1.6-2.1-1.2 0-1.8.8-1.8 2.1v5h-2.8v-9.5h2.8v1.3s.9-1.6 2.9-1.6 3.5 1.3 3.5 3.8-.1 6-.1 6z"/></g><g transform="translate(670)"><path fill="#D3C1AF" d="M15 0C6.7 0 0 6.7 0 15s6.7 15 15 15 15-6.7 15-15S23.3 0 15 0zm-3.3 20.6h-3v-9.5h2.9v9.5zM10.2 9.9c-.9 0-1.7-.8-1.7-1.7 0-1 .8-1.7 1.7-1.7.9 0 1.7.8 1.7 1.7 0 .9-.8 1.7-1.7 1.7zm12.5 10.7h-2.9v-5s-.5-2.1-1.6-2.1c-1.2 0-1.8.8-1.8 2.1v5h-2.8v-9.5h2.8v1.3s.9-1.6 2.9-1.6 3.5 1.3 3.5 3.8-.1 6-.1 6z"/></g><g transform="translate(710)"><linearGradient id="a" gradientUnits="userSpaceOnUse" x1="84.285" y1="61.551" x2="84.285" y2="35.085"><stop offset="0" stop-color="#F68720"/><stop offset="1" stop-color="#F2A422"/></linearGradient><path fill="url(#a)" d="M82.1 37.1c-3-2.1-4.4-5.4-3-7.3 1.3-1.9 4.9-1.8 7.9.3s3 7.3 3 7.3-4.9 1.8-7.9-.3z"/><linearGradient id="b" gradientUnits="userSpaceOnUse" x1="82.047" y1="61.556" x2="82.047" y2="35.087"><stop offset="0" stop-color="#F68720"/><stop offset="1" stop-color="#F2A422"/></linearGradient><path fill="url(#b)" d="M84.2 25.6c-1.7 1.7-4 2.2-5.1 1-1.1-1.1-.5-3.4 1.2-5.1s5.1-1 5.1-1 .6 3.4-1.2 5.1z"/><linearGradient id="c" gradientUnits="userSpaceOnUse" x1="5.716" y1="61.55" x2="5.716" y2="35.085"><stop offset="0" stop-color="#F68720"/><stop offset="1" stop-color="#F2A422"/></linearGradient><path fill="url(#c)" d="M7.9 38.2c3-2.1 4.4-5.4 3-7.3C9.6 29 6 29.1 3 31.2s-3 7.3-3 7.3 4.9 1.8 7.9-.3z"/><linearGradient id="d" gradientUnits="userSpaceOnUse" x1="7.031" y1="61.554" x2="7.031" y2="35.086"><stop offset="0" stop-color="#F68720"/><stop offset="1" stop-color="#F2A422"/></linearGradient><path fill="url(#d)" d="M5 27c1.6 1.5 3.7 2 4.7 1s.5-3.1-1.1-4.6c-1.6-1.5-4.6-1-4.6-1s-.5 3.1 1 4.6z"/><linearGradient id="e" gradientUnits="userSpaceOnUse" x1="73.61" y1="60.25" x2="75.971" y2=".5"><stop offset="0" stop-color="#FECF07"/><stop offset="1" stop-color="#FEDF1E"/></linearGradient><path fill="url(#e)" d="M71 9.5c2.2-.4 3.4-5.6 3.7-6.9 0-.1.1-.2.1-.3.1-.3.2-.7.5-1 .5-.7 1.2-1.1 2-1.2.7-.1 1.5.1 2.2.7.6.6 1 1.4 1.1 2.2.1.8-.1 1.6-.5 2.2-1.8 3.4-7 4.7-9.1 4.3"/><linearGradient id="f" gradientUnits="userSpaceOnUse" x1="84.427" y1="60.666" x2="86.786" y2=".93"><stop offset="0" stop-color="#FECF07"/><stop offset="1" stop-color="#FEDF1E"/></linearGradient><path fill="url(#f)" d="M82.7 13.1c1.2.7 3.7-1.3 4.4-1.7l.1-.1.6-.3c.5-.1 1-.1 1.4.2s.7.6.7 1.1c.1.5-.1 1-.4 1.4-.3.4-.6.7-1.1.8-2 1-4.9-.4-5.7-1.4"/><linearGradient id="g" gradientUnits="userSpaceOnUse" x1="65.447" y1="59.924" x2="67.807" y2=".178"><stop offset="0" stop-color="#FECF07"/><stop offset="1" stop-color="#FEDF1E"/></linearGradient><path fill="url(#g)" d="M64 11.1c1.8-.7 1.9-5.2 2-6.4v-.2c0-.3.1-.7.2-1 .3-.7.8-1.2 1.4-1.4.7-.1 1.3-.1 2 .3s1.1 1 1.3 1.7c.2.6.2 1.3 0 2-.9 3.1-5.1 5-6.9 5"/><linearGradient id="h" gradientUnits="userSpaceOnUse" x1="81.059" y1="60.535" x2="83.418" y2=".795"><stop offset="0" stop-color="#FECF07"/><stop offset="1" stop-color="#FEDF1E"/></linearGradient><path fill="url(#h)" d="M78.6 11c1.9 0 3.8-4.1 4.3-5.1.1-.1.1-.2.1-.2.2-.3.4-.6.6-.8.5-.5 1.2-.8 1.9-.7.6 0 1.2.4 1.7.9.4.6.6 1.3.5 2.1-.1.7-.3 1.3-.8 1.8-2.1 2.5-6.6 2.7-8.3 2"/><linearGradient id="i" gradientUnits="userSpaceOnUse" x1="63.5" y1="61.388" x2="12.638" y2="-1.026"><stop offset="0" stop-color="#4DC0AF"/><stop offset=".263" stop-color="#57C3B8"/><stop offset=".62" stop-color="#60C5C0"/><stop offset="1" stop-color="#62C6C3"/></linearGradient><path fill="url(#i)" d="M22.7 9.8c-2.2-.5-3.2-5.7-3.5-7 0-.1 0-.2-.1-.3-.1-.4-.2-.8-.5-1.1C18.1.7 17.4.2 16.7.1c-.7-.1-1.5.1-2.2.6-.7.6-1 1.3-1.2 2.2-.1.8 0 1.6.4 2.3 1.7 3.5 6.9 5 9 4.6"/><linearGradient id="j" gradientUnits="userSpaceOnUse" x1="54.179" y1="69.012" x2="3.303" y2="6.582"><stop offset="0" stop-color="#4DC0AF"/><stop offset=".263" stop-color="#57C3B8"/><stop offset=".62" stop-color="#60C5C0"/><stop offset="1" stop-color="#62C6C3"/></linearGradient><path fill="url(#j)" d="M12.1 9.7c-1.9 1.1-6.3-2-7.3-2.7-.1-.1-.2-.1-.2-.2-.4-.2-.7-.4-1.1-.4-.9-.3-1.7-.1-2.3.3-.6.4-1.1 1.1-1.2 2-.1.8.2 1.7.7 2.4.4.6 1.1 1.1 1.9 1.4 3.5 1.4 8.2-1.1 9.5-2.8"/><linearGradient id="k" gradientUnits="userSpaceOnUse" x1="67.097" y1="58.474" x2="16.226" y2="-3.95"><stop offset="0" stop-color="#4DC0AF"/><stop offset=".263" stop-color="#57C3B8"/><stop offset=".62" stop-color="#60C5C0"/><stop offset="1" stop-color="#62C6C3"/></linearGradient><path fill="url(#k)" d="M24.9 9.8c-.9-.9.3-3.7.6-4.4 0-.1.1-.1.1-.1.1-.2.1-.4.1-.7 0-.5-.2-.9-.5-1.2-.3-.3-.7-.4-1.2-.4s-.9.3-1.2.7c-.3.3-.5.7-.5 1.2-.4 2.1 1.5 4.4 2.6 4.9"/><linearGradient id="l" gradientUnits="userSpaceOnUse" x1="58.538" y1="65.443" x2="7.669" y2="3.022"><stop offset="0" stop-color="#4DC0AF"/><stop offset=".263" stop-color="#57C3B8"/><stop offset=".62" stop-color="#60C5C0"/><stop offset="1" stop-color="#62C6C3"/></linearGradient><path fill="url(#l)" d="M14.4 9.1c-.5-1.1-3.5-1-4.3-1h-.2c-.2 0-.4 0-.7-.1-.5-.2-.8-.5-1-.9 0-.4 0-.9.2-1.3s.6-.8 1-.9c.4-.2.9-.2 1.3-.1 2.1.4 3.6 3.1 3.7 4.3"/><linearGradient id="m" gradientUnits="userSpaceOnUse" x1="51.094" y1="71.5" x2=".232" y2="9.087"><stop offset="0" stop-color="#4DC0AF"/><stop offset=".263" stop-color="#57C3B8"/><stop offset=".62" stop-color="#60C5C0"/><stop offset="1" stop-color="#62C6C3"/></linearGradient><path fill="url(#m)" d="M11.3 14.6c-1.8-.4-4.5 3.3-5.1 4.2-.2.2-.2.3-.2.3-.2.3-.5.5-.7.7-.6.4-1.3.5-2 .3-.6-.2-1.2-.6-1.5-1.2-.3-.7-.3-1.4-.1-2.1.2-.6.6-1.2 1.1-1.6 2.4-2.2 6.9-1.6 8.5-.6"/><linearGradient id="n" gradientUnits="userSpaceOnUse" x1="66.125" y1="61.553" x2="66.125" y2="35.086"><stop offset="0" stop-color="#F68720"/><stop offset="1" stop-color="#F2A422"/></linearGradient><path fill="url(#n)" d="M58.4 37.8c4.3-3.6 9.8-5.5 15.5-5.5 2.3 0 4.1-1.8 4.1-4.1s-1.8-4.1-4.1-4.1c-7.2 0-14 2.3-19.6 6.5 1.6 2.2 3 4.7 4.1 7.2z"/><linearGradient id="o" gradientUnits="userSpaceOnUse" x1="32.507" y1="61.553" x2="32.507" y2="35.086"><stop offset="0" stop-color="#F68720"/><stop offset="1" stop-color="#F2A422"/></linearGradient><path fill="url(#o)" d="M52.1 44.3c-1-2.8-2.3-5.4-3.9-7.9-1.1 1.4-2.1 2.8-2.9 4.4-1.5-2.6-3.3-5-5.4-7.2-6.2-6.2-14.4-9.6-23.1-9.6-2.3 0-4.1 1.8-4.1 4.1s1.8 4.1 4.1 4.1c6.5 0 12.7 2.5 17.3 7.2 4.6 4.6 7.2 10.7 7.2 17.3v5.1h8.3v-5.1c0-4.1 1-8.1 2.9-11.6-.2-.3-.3-.6-.4-.8z"/><linearGradient id="p" gradientUnits="userSpaceOnUse" x1="63.624" y1="61.298" x2="12.756" y2="-1.122"><stop offset="0" stop-color="#4DC0AF"/><stop offset=".263" stop-color="#57C3B8"/><stop offset=".62" stop-color="#60C5C0"/><stop offset="1" stop-color="#62C6C3"/></linearGradient><path fill="url(#p)" d="M16.8 19.2c8.2 0 16.1 2.7 22.5 7.5.7-.8 1.5-1.6 2.2-2.4 1.2-1.2 2.5-2.3 3.8-3.4-8.1-6.5-18-10-28.5-10-2.3 0-4.1 1.8-4.1 4.1s1.8 4.2 4.1 4.2z"/><linearGradient id="q" gradientUnits="userSpaceOnUse" x1="70.261" y1="55.891" x2="19.391" y2="-6.532"><stop offset="0" stop-color="#4DC0AF"/><stop offset=".263" stop-color="#57C3B8"/><stop offset=".62" stop-color="#60C5C0"/><stop offset="1" stop-color="#62C6C3"/></linearGradient><path fill="url(#q)" d="M73.9 37.1c-5.1 0-9.9 1.9-13.6 5.5v-.1c0-.1-.1-.2-.1-.3 0-.1 0-.1-.1-.2-.1-.2-.1-.3-.2-.5-1.5-4.3-3.6-8.3-6.3-12-.7-1-1.5-1.9-2.2-2.8-1.4 1-2.7 2.2-4 3.4-.7.7-1.4 1.5-2.1 2.2.6.7 1.1 1.3 1.6 2 2.2 3 4 6.3 5.2 9.8 1.4 4 2.1 8.2 2.1 12.4v5.1h8.3v-5.1c0-3 1.2-5.9 3.3-8s5-3.3 8-3.3c2.3 0 4.1-1.8 4.1-4.1.1-2.1-1.8-4-4-4z"/><linearGradient id="r" gradientUnits="userSpaceOnUse" x1="24.987" y1="59.48" x2="27.037" y2="-15.427"><stop offset="0" stop-color="#FECF07"/><stop offset="1" stop-color="#FEDF1E"/></linearGradient><path fill="url(#r)" d="M34 39.5c-.6-.6-1.2-1.1-1.8-1.6-.7 1.5-1.3 3.1-1.8 4.8-3.7-3.5-8.5-5.5-13.6-5.5-2.3 0-4.1 1.8-4.1 4.1s1.8 4.1 4.1 4.1c3 0 5.9 1.2 8 3.3 2.1 2.1 3.3 5 3.3 8v5.1h8.3v-5.1c0-4 .6-7.9 1.8-11.6-1.1-2.1-2.5-4-4.2-5.6z"/><linearGradient id="s" gradientUnits="userSpaceOnUse" x1="56.143" y1="60.333" x2="58.192" y2="-14.574"><stop offset="0" stop-color="#FECF07"/><stop offset="1" stop-color="#FEDF1E"/></linearGradient><path fill="url(#s)" d="M39.9 33.6c.9.9 1.7 1.8 2.5 2.8 1.4-2.2 3.1-4.3 5-6.2 7.1-7.1 16.5-11 26.5-11 2.3 0 4.1-1.8 4.1-4.1S76.1 11 73.9 11c-12.2 0-23.7 4.8-32.3 13.4-1.9 1.9-3.7 4-5.2 6.2 1.2.9 2.4 1.9 3.5 3z"/><path opacity=".15" fill="#7E6F59" d="M47.4 30.2c-.7.7-1.4 1.5-2.1 2.2.2.2.4.4.6.7.7-.8 1.4-1.6 2.1-2.3 1.2-1.2 2.5-2.4 3.9-3.4-.2-.2-.4-.4-.6-.7-1.4 1.1-2.7 2.3-3.9 3.5zm4.7 14.1c-1-2.8-2.3-5.4-3.9-7.9-.2.2-.4.5-.6.7 1.5 2.3 2.7 4.8 3.6 7.4.2.5.4 1.1.5 1.6.2-.4.4-.7.6-1.1 0-.2-.1-.5-.2-.7z"/><path opacity=".1" fill="#7E6F59" d="M34 39.5c-.6-.6-1.2-1.1-1.8-1.6-.1.3-.2.5-.4.8.5.5 1.1.9 1.6 1.4 1.8 1.8 3.3 3.9 4.5 6.2.1-.4.2-.8.4-1.2-1.2-2.1-2.6-4-4.3-5.6z"/></g><g transform="translate(810)"><path fill="#F7F5F6" d="M190.6 92.8H11L37.7 7.2h127.6z"/><path fill="#A8967C" d="M170.6.2H32.5L1.4 99.8H200L170.6.2zm10.5 85.5h-10.7l-7.1-24c.1-.4.2-.8.4-1.2 1.3-3.5 3.3-6.4 5.4-9.5l1.2-1.8-2.2-7.5 13 44zm-19.6-66.5l4.9 16.7c-1.4 3.6-3.4 6.5-5.5 9.5-.6.8-1.1 1.6-1.7 2.5L155 33.5c1.8-2.2 3.4-4.8 4.7-7.9.8-2.2 1.4-4.3 1.8-6.4zm-10.4 1l-1.8-6h2.8c-.1 2-.4 4-1 6zm-1.3 3.2c-3 6-8.5 9.4-14.3 12.9-1.6 1-3.3 2-4.9 3.1l-4-25.2h20.5l2.7 9.2zm-47.1-9.1v71.5H75.5l5.7-54.5 19.2-17h2.3zm-23.8 19l-5.5 52.4H42.9l6.5-26.5 29.5-25.9zm-25.4 9.1l6.9-28.2h20.4l-.5 4.5-26.8 23.7zm29.2-25.7l.3-2.4h2.5l-2.8 2.4zm-39.9-2.4h15.4l-7.5 30.6-24 21.2L21 84.2l25.6-22.5-5.9 24H20.6l22.2-71.4zm62 71.4V14.3h19.6l4.2 26.5c-.5.3-1 .7-1.4 1.1-11.2 8.8-17.9 23.5-20.1 43.9h-2.3zm25.6-33.5l5.3 33.6H117c1.8-15.2 6.3-26.4 13.4-33.6zm7.5 33.5l-5.6-35.3c.3-.3.7-.6 1-.8 2.2-1.7 4.7-3.2 7.3-4.8 4.3-2.6 8.8-5.4 12.7-9.4l4.4 15c-1.2 2-2.4 4.3-3.3 6.8-3.1 8.3-2.8 17.9.7 28.6h-17.2zM162.4 66l5.8 19.7h-2.7c-2.8-7.3-3.8-13.9-3.1-19.7z"/><path d="M47.3 40.9c-3-3.8-4.3-8.5-3.7-13.3.1-.9.9-1.5 1.8-1.4.9.1 1.5.9 1.4 1.8-.5 3.9.6 7.8 3 10.9l-2.5 2zm-3-16.2c-.1-1.5-3.4-2.7-4.2-3-.1 0-.1-.1-.2-.1-.2-.1-.5-.2-.7-.4-.4-.4-.7-.9-.7-1.4 0-.5.2-1 .6-1.4.4-.4 1-.5 1.6-.5.5 0 1 .2 1.4.5 2.2 1.4 2.6 5 2.2 6.3m-1.5 3.4c-.4-1.3-3.6-1.7-4.3-1.8h-.2c-.2 0-.5-.1-.7-.2-.5-.3-.8-.7-.9-1.1-.1-.4 0-.9.3-1.3s.8-.7 1.3-.8c.5-.1.9 0 1.4.2 2.1.7 3.2 3.8 3.1 5m-.1 4.1c-.3-1.1-3-1.4-3.7-1.5h-.1c-.2 0-.4-.1-.6-.2-.4-.2-.7-.6-.7-.9-.1-.4 0-.8.2-1.1.3-.4.7-.6 1.1-.7.4-.1.8 0 1.2.1 1.8.6 2.7 3.2 2.6 4.3m3.7-6.7c-.2-1.6 3.1-3.5 3.9-4 .1-.1.1-.1.2-.1.2-.2.5-.3.6-.6.4-.5.5-1.1.4-1.6-.1-.5-.4-1-.9-1.3-.5-.3-1.2-.4-1.7-.3-.5.1-1 .4-1.4.8-2 2-1.8 5.8-1.1 7.1m1.4 3.7c.3-1.4 3.6-2.1 4.4-2.3h.2c.2-.1.5-.2.7-.3.5-.3.7-.8.8-1.2.1-.5-.1-1-.4-1.4-.4-.4-.9-.7-1.4-.7-.5-.1-1 0-1.4.3-2.3 1-3.2 4.3-2.9 5.6m.3 4.3c.2-1.1 3-1.8 3.7-1.9h.1c.2-.1.4-.1.6-.3.4-.3.6-.6.7-1 .1-.4-.1-.8-.4-1.1-.3-.3-.7-.5-1.2-.6-.4 0-.8 0-1.2.2-1.8.8-2.5 3.6-2.3 4.7" fill="#FFCE37"/><path d="M100.9 48.3c-1.3-.2-2.3-1-2.1-1.9.1-.8 1.3-1.4 2.6-1.2 1.3.2 2.1 1.9 2.1 1.9s-1.3 1.4-2.6 1.2zm-1.1-4.1c-.3.8-1 1.3-1.5 1.1-.5-.2-.7-1-.4-1.8.3-.8 1.5-1.1 1.5-1.1s.7 1 .4 1.8zM100.9 48.3c-1.3-.2-2.3-1-2.1-1.9.1-.8 1.3-1.4 2.6-1.2 1.3.2 2.1 1.9 2.1 1.9s-1.3 1.4-2.6 1.2zm-1.1-4.1c-.3.8-1 1.3-1.5 1.1-.5-.2-.7-1-.4-1.8.3-.8 1.5-1.1 1.5-1.1s.7 1 .4 1.8zM97.3 42.8c-.2 1.3-1 2.3-1.8 2.2-.8-.1-1.4-1.3-1.2-2.6.2-1.3 1.8-2.2 1.8-2.2s1.4 1.2 1.2 2.6zM94 44.1c.7.5 1 1.3.6 1.8-.3.4-1.2.4-1.9-.2-.7-.5-.6-1.8-.6-1.8s1.2-.3 1.9.2zm-11.8 4.2c1.3-.2 2.3-1 2.2-1.9-.1-.8-1.3-1.4-2.6-1.2-1.3.2-2.2 1.9-2.2 1.9s1.3 1.3 2.6 1.2zm1.2-4.1c.3.8.9 1.3 1.5 1.2.5-.2.7-1 .4-1.8-.3-.8-1.5-1.2-1.5-1.2s-.7 1-.4 1.8zm1.4 6.1c.5-.7.6-1.5.1-1.9-.4-.3-1.2 0-1.8.6-.5.7-.1 1.9-.1 1.9s1.3.1 1.8-.6zm13.7-.1c-.5-.7-.6-1.5-.1-1.9.4-.3 1.2 0 1.8.6.5.7.1 1.9.1 1.9s-1.2.1-1.8-.6zm-12.6-7.4c.2 1.3 1 2.3 1.8 2.2.8-.1 1.4-1.3 1.2-2.6-.2-1.3-1.8-2.2-1.8-2.2s-1.4 1.2-1.2 2.6zm3.4 1.4c-.7.5-1.1 1.2-.8 1.7.3.5 1.1.5 1.9 0 .7-.5.8-1.7.8-1.7s-1.1-.5-1.9 0zm8.6 2.3c-.4-.7-1.3-1-2-.6-1.8 1-3.2 2.5-4.3 4.2-.9-1.8-2.3-3.4-4.1-4.5-.7-.4-1.6-.2-2.1.4-.4.7-.2 1.6.4 2.1 2 1.3 3.3 3.2 3.8 5.5s.1 4.7-1.2 6.6l-1 1.5 1.4.9 1.6-2.5v3.2H92v-3.1l1.5 2.7 1.4-.8-.9-1.6c-1.2-2-1.5-4.4-.9-6.7s2.1-4.2 4.1-5.3c.9-.4 1.1-1.3.7-2z" fill="#F58220"/><path fill="#65C4AF" d="M140.8 48.4c2.9 3.2-2.3 12.2-3.6 14.4-.1.2-.2.4-.3.5-.4.7-.6 1.4-.7 2.2-.2 1.7.3 3.1 1.4 4.2 1 1 2.6 1.6 4.4 1.6 1.8-.1 3.5-.8 4.8-2 1.2-1 2-2.4 2.3-3.9 1.9-7-4.4-15.1-8.3-17"/></g><g transform="translate(1020)"><path fill="#F7F5F6" d="M47.8 23.2H2.6L9.3 1.7h32.1z"/><path fill="#A8967C" d="M42.7 0H8L.2 25h49.9L42.7 0zm2.7 21.5h-2.7l-1.8-6c0-.1.1-.2.1-.3.3-.9.8-1.6 1.4-2.4.1-.2.2-.3.3-.5l-.6-1.9 3.3 11.1zM40.5 4.7l1.2 4.2c-.4.9-.9 1.6-1.4 2.4-.1.2-.3.4-.4.6l-1.1-3.6c.5-.6.9-1.2 1.2-2 .2-.5.4-1 .5-1.6zm-2.6.3l-.4-1.5h.7L37.9 5zm-.4.8c-.8 1.5-2.1 2.4-3.6 3.2-.4.2-.8.5-1.2.8l-1-6.3h5.2l.6 2.3zM25.7 3.5v18h-6.8l1.4-13.7 4.8-4.3h.6zm-6 4.8l-1.4 13.2h-7.7l1.6-6.7 7.5-6.5zm-6.4 2.3L15 3.5h5.1L20 4.6l-6.7 6zm7.4-6.5l.1-.6h.6l-.7.6zm-10-.6h3.9l-1.9 7.7-6 5.3-1.4 4.6 6.4-5.7-1.5 6H5.1l5.6-17.9zm15.5 18v-18h4.9l1.1 6.7c-.1.1-.2.2-.4.3-2.8 2.2-4.5 5.9-5 11h-.6zm6.5-8.5l1.3 8.4h-4.7c.4-3.7 1.6-6.6 3.4-8.4zm1.8 8.5l-1.4-8.9c.1-.1.2-.1.3-.2.5-.4 1.2-.8 1.8-1.2 1.1-.6 2.2-1.4 3.2-2.4l1.1 3.8c-.3.5-.6 1.1-.8 1.7-.8 2.1-.7 4.5.2 7.2h-4.4zm6.2-5l1.5 5h-.7c-.7-1.9-1-3.5-.8-5z"/><path d="M11.8 10.2c-.7-1-1.1-2.1-.9-3.4 0-.2.2-.4.5-.4.2 0 .4.2.4.5-.1 1 .1 2 .8 2.7l-.8.6zM11 6.1c0-.4-.9-.7-1.1-.8-.1 0-.1-.1-.2-.1-.1-.1-.1-.2-.1-.3 0-.1.1-.3.2-.3.1-.1.3-.1.4-.1.1 0 .3 0 .4.1.4.3.5 1.2.4 1.5m-.4.9c-.1-.3-.9-.4-1.1-.4-.1 0-.1 0-.2-.1s-.2-.2-.2-.3c0-.1 0-.2.1-.3.1-.1.2-.2.3-.2h.3c.6.2.9 1 .8 1.3m0 1c-.1-.3-.8-.4-.9-.4-.1 0-.1 0-.1-.1-.2 0-.3-.1-.3-.2s0-.2.1-.3c0 0 .1-.1.2-.1h.3c.5.2.7.8.7 1.1m.9-1.7c0-.4.8-.9 1-1 .1 0 .1-.1.2-.1.1-.1.1-.3.1-.4 0-.1-.1-.3-.2-.3-.1-.1-.3-.1-.4-.1-.1 0-.3.1-.4.2-.5.4-.4 1.4-.3 1.7m.4 1c.1-.4.9-.6 1.1-.6.1 0 .1 0 .2-.1s.2-.2.2-.3c0-.1 0-.2-.1-.3-.1-.1-.2-.2-.4-.2-.1 0-.3 0-.4.1-.4.2-.7 1-.6 1.4m.1 1c0-.3.7-.4.9-.4.1 0 .1 0 .1-.1.1-.1.2-.2.2-.3 0-.1 0-.2-.1-.3-.1-.1-.2-.1-.3-.1-.1 0-.2 0-.3.1-.4.2-.6.8-.5 1.1" fill="#FFCE37"/><path d="M25.2 12.1c-.3-.1-.6-.3-.5-.5 0-.2.3-.3.7-.3.3.1.5.5.5.5s-.3.3-.7.3zM25 11c-.1.2-.2.3-.4.3-.1 0-.2-.3-.1-.5s.4-.3.4-.3.1.3.1.5zM25.2 12c-.3-.1-.6-.3-.5-.5 0-.2.3-.3.7-.3.3.1.5.5.5.5s-.3.4-.7.3zm-.2-1c-.1.2-.2.3-.4.3-.1 0-.2-.3-.1-.5s.4-.3.4-.3.1.3.1.5zM24.3 10.7c0 .3-.3.6-.5.5-.2 0-.3-.3-.3-.6s.5-.5.5-.5.4.2.3.6zm-.8.3c.2.1.2.3.2.4-.1.1-.3.1-.5 0S23 11 23 11s.3-.1.5 0zm-3 1c.3 0 .6-.3.5-.5 0-.2-.3-.3-.7-.3-.3 0-.5.5-.5.5s.4.4.7.3zm.3-1c.1.2.2.3.4.3.1 0 .2-.3.1-.5s-.4-.3-.4-.3-.1.3-.1.5zm.4 1.5c.1-.2.1-.4 0-.5-.1-.1-.3 0-.4.2-.1.2 0 .5 0 .5s.3 0 .4-.2zm3.4 0c-.1-.2-.1-.4 0-.5.1-.1.3 0 .4.2.1.2 0 .5 0 .5s-.2 0-.4-.2zm-3.1-1.8c0 .3.3.6.5.5.2 0 .3-.3.3-.6s-.5-.5-.5-.5-.4.2-.3.6zm.8.3c-.2.1-.3.3-.2.4.1.1.3.1.5 0s.2-.4.2-.4-.3-.1-.5 0zm2.2.6c-.1-.2-.3-.2-.5-.1-.4.3-.8.6-1.1 1.1-.2-.5-.6-.8-1-1.1-.2-.1-.4-.1-.5.1-.1.2-.1.4.1.5.5.3.8.8 1 1.4.1.6 0 1.2-.3 1.7l-.2.4.3.2.4-.6v.8h.3v-.8l.4.7.4-.2-.2-.4c-.3-.5-.4-1.1-.2-1.7.2-.6.5-1 1-1.3.1-.3.2-.5.1-.7z" fill="#F58220"/><path fill="#65C4AF" d="M35.3 12.1c.7.8-.6 3.1-.9 3.6 0 .1-.1.1-.1.1-.1.2-.2.4-.2.5-.1.4.1.8.3 1 .3.3.6.4 1.1.4.4 0 .9-.2 1.2-.5.3-.3.5-.6.6-1 .5-1.6-1.1-3.6-2-4.1"/></g><g transform="translate(1080)"><path fill="#A8967D" d="M22.5 0C10.1 0 0 10.1 0 22.5S10.1 45 22.5 45 45 34.9 45 22.5 34.9 0 22.5 0zm12.4 32.8l-2.1 2.1-10.3-10.3-10.3 10.3-2.1-2.1 10.3-10.3-10.3-10.3 2.1-2.1 10.3 10.3 10.3-10.3 2.1 2.1-10.3 10.3 10.3 10.3z"/></g><g transform="translate(1140)"><path fill="#7D6F5A" d="M22.5 0C10.1 0 0 10.1 0 22.5S10.1 45 22.5 45 45 34.9 45 22.5 34.9 0 22.5 0zm12.4 32.8l-2.1 2.1-10.3-10.3-10.3 10.3-2.1-2.1 10.3-10.3-10.3-10.3 2.1-2.1 10.3 10.3 10.3-10.3 2.1 2.1-10.3 10.3 10.3 10.3z"/></g><g transform="translate(1200)"><g fill="#A8967D"><path d="M0 0h45v7.3H0zm0 23.3h45v7.3H0zm0-11.6h45V19H0zM5.2 35.8h2.2l1.5 4.1.5 1.6h.1l.5-1.6 1.5-4.1h2.2v9h-1.9v-3.3c0-.9.2-2.2.3-3.1H12l-.7 2.1L9.9 44H9l-1.4-3.5-.7-2.1c.1.9.3 2.2.3 3.1v3.3h-2v-9zm10.6 0h5.7v1.7h-3.6v1.8H21V41h-3.1v2.1h3.8v1.7h-5.8v-9zm7.6 0h2.1l2.4 4.5.9 2h.1c-.1-1-.3-2.2-.3-3.3v-3.2h1.9v9h-2.1L26 40.3l-.9-2H25c.1 1 .3 2.2.3 3.3v3.2h-2v-9zm9.2 0h2v5.1c0 1.8.6 2.4 1.6 2.4s1.6-.6 1.6-2.4v-5.1h2v4.9c0 3-1.2 4.4-3.6 4.4s-3.6-1.3-3.6-4.4v-4.9z"/></g></g><g transform="translate(1260)"><path fill="#807764" d="M5.2 35.7h2.2l1.5 4.1.5 1.6h.1l.5-1.6 1.5-4.1h2.2v9h-1.9v-3.3c0-.9.2-2.2.3-3.1H12l-.7 2.1-1.4 3.5H9l-1.4-3.5-.7-2.1c.1.9.3 2.2.3 3.1v3.3h-2v-9zm10.6 0h5.7v1.7h-3.6v1.8H21v1.7h-3.1V43h3.8v1.7h-5.8v-9h-.1zm7.6 0h2.1l2.4 4.5.9 2h.1c-.1-1-.3-2.2-.3-3.3v-3.2h1.9v9h-2.1L26 40.2l-.9-2H25c.1 1 .3 2.2.3 3.3v3.2h-2v-9h.1zm9.2 0h2v5.1c0 1.8.6 2.4 1.6 2.4s1.6-.6 1.6-2.4v-5.1h2v4.9c0 3-1.2 4.4-3.6 4.4-2.4 0-3.6-1.3-3.6-4.4v-4.9zM0 0h45v7.3H0V0zm0 23.2h45v7.3H0v-7.3zm0-11.5h45V19H0v-7.3z"/></g><g transform="translate(1320)"><path fill="#A8967D" d="M155.6 66.9c0 1.2-1 2.2-2.2 2.2H47.2c-1.2 0-2.2-1-2.2-2.2V2.2C45 1 46 0 47.2 0h106.2c1.2 0 2.2 1 2.2 2.2v64.7z"/><path fill="#fff" d="M52.4 6.8h96v55h-96z"/><path fill="#A8967D" d="M103.4 90V65.8h-7v25l-9.2 9.2h9.7l3.4-3.4 3.4 3.4h9.7z"/><path d="M86.3 82.1h27.5v17.1H86.3z" fill="none"/><path fill="#65C4AF" d="M99.4 34.6l4.4 17c-9.4 2.3-18.9-3.4-21.2-12.8-2.3-9.4 3.3-18.9 12.7-21.3 1.4-.4 3.2-.5 4.2-.5v17.6z"/><path fill="#F58220" d="M99.6 34.6L114 24.5c5.6 7.9 3.6 18.9-4.3 24.4-1.8 1.3-3.7 2.1-5.8 2.7l-4.3-17z"/><path fill="#FFCF38" d="M99.4 34.6V17c6 0 11 2.6 14.4 7.5L99.4 34.6z"/></g><g transform="translate(1530)"><path fill="#A8967D" d="M37.8 16.8c0 .3-.3.6-.6.6H10.6c-.3 0-.6-.3-.6-.6V.6c0-.3.3-.6.6-.6h26.7c.3 0 .6.3.6.6v16.2z"/><path fill="#fff" d="M12.4 1.8h23v14h-23z"/><path fill="#A8967D" d="M24.4 22.6v-5.8h-2v5.9L20.1 25h2.4l.9-.9 1 .9h2.4z"/><path fill="#65C4AF" d="M23.7 8.4l1.1 4.3c-2.4.6-4.8-.8-5.3-3.2-.6-2.4.8-4.8 3.2-5.3.3-.1.7-.2 1-.2v4.4z"/><path fill="#F58220" d="M23.7 8.4l3.6-2.5c1.4 2 .9 4.7-1.1 6.1-.5.3-.9.5-1.5.7l-1-4.3z"/><path fill="#FFCF38" d="M23.7 8.4V4c1.5 0 2.8.7 3.6 1.9l-3.6 2.5z"/></g><g transform="translate(1590)"><circle fill="#F58220" cx="30" cy="30" r="30"/><path fill="#EAE5DE" d="M41.5 44.2c0 .4-.4.8-.8.8H19.3c-.4 0-.8-.4-.8-.8V15.8c0-.4.4-.8.8-.8h21.4c.4 0 .8.4.8.8v28.4z"/><path fill="#8E765A" d="M21.1 17.7h17.6v5.5H21.1zm10.6 18.7h6.9v6.3h-6.9zM21.1 25.5h17.6v.8H21.1zm0 5.5h17.6v.8H21.1zm0 2.7h17.6v.8H21.1zm0-5.5h17.6v.8H21.1zm0 8.2h9.2v.8h-9.2zm0 2.7h9.2v.8h-9.2zm0 2.8h9.2v.8h-9.2z"/></g><g transform="translate(1660)"><g transform="translate(530)"><circle fill="#C4621A" cx="-500" cy="30" r="30"/><path fill="#EAE5DE" d="M-488.5 44.2c0 .4-.4.8-.8.8h-21.4c-.4 0-.8-.4-.8-.8V15.8c0-.4.4-.8.8-.8h21.4c.4 0 .8.4.8.8v28.4z"/><path fill="#8E765A" d="M-508.9 17.7h17.6v5.5h-17.6v-5.5zm10.6 18.7h6.9v6.3h-6.9v-6.3zm-10.6-10.9h17.6v.8h-17.6v-.8zm0 5.5h17.6v.8h-17.6V31zm0 2.7h17.6v.8h-17.6v-.8zm0-5.5h17.6v.8h-17.6v-.8zm0 8.2h9.2v.8h-9.2v-.8zm0 2.7h9.2v.8h-9.2v-.8zm0 2.8h9.2v.8h-9.2v-.8z"/></g></g><g transform="translate(1730)"><path stroke="#E9E4DD" stroke-width="11.776" stroke-linecap="round" stroke-miterlimit="10" d="M136.8 35.5c-15.8 0-30.7 6.2-41.9 17.4-2.1 2.1-4.1 4.4-5.8 6.7-3.5 4.8-6.3 10-8.2 15.5-2.2 6.2-3.3 12.9-3.3 19.7 0-5.9-2.3-11.5-6.5-15.6s-9.7-6.5-15.6-6.5" fill="none"/><path stroke="#E9E4DD" stroke-width="12" stroke-linecap="round" stroke-miterlimit="10" d="M77 163V96" fill="none"/><path fill="#64C4AF" d="M177.6 47.9c4.4-1.3 8.3-3.7 10.3-5-.6-1.5-1.6-3.8-3.1-6.2-1-1.6-2.2-3.4-3.8-5-1.9 2.3-4 4.1-6.4 5.1-4.9 2.2-10 3-14.5 2.4-3.6-.5-6.5-2-8.1-4.3.2 1.9 1.2 4 2.9 6 2.8 3.3 7.1 6 12.1 7.5 3.1.8 6.7.7 10.6-.5z"/><path fill="#F48220" d="M174.2 35.7c2.9-1.3 5.5-3.7 7.7-7.2 2.7-4.4 4.1-9.2 4.5-11.1-1.6-.9-5.7-2.9-10.5-3.8 0 3.7-.9 6.9-2.4 9.5-2.7 4.5-6.4 8-10.4 10-3.8 1.8-7.4 2.1-10.4.7 1.4 2.2 4.1 3.7 7.7 4.3 4.2.5 9.1-.3 13.8-2.4z"/><path fill="#FFCE37" d="M151.9 9.9c-5.4 8.9-5.2 19 .5 22.5s14.8-.9 20.2-9.9c5.4-9-.5-22.5-.5-22.5s-14.8.9-20.2 9.9z"/><circle stroke="#E9E4DD" stroke-width="17.762" stroke-linecap="round" stroke-miterlimit="10" cx="77.5" cy="231.4" r="68.6" fill="none"/></g><g transform="translate(1930)"><path opacity=".8" fill="#EBE8E2" enable-background="new" d="M0 0v30h30V0H0zm8.103 14.613l1.823-1.824 8.948-8.95 1.824 1.823-8.948 8.948 8.948 8.95-1.824 1.823-8.948-8.948-1.823-1.823z"/><path fill="#8F765A" d="M8.103 14.613l1.823-1.824 8.948-8.95 1.824 1.824-8.948 8.948 8.948 8.948-1.824 1.825-8.948-8.948z"/></g><g transform="translate(1970)"><path opacity=".8" fill="#EBE8E2" enable-background="new" d="M0 0v30h30V0H0zm20.074 16.437l-8.948 8.948-1.823-1.824 8.947-8.946-8.948-8.948 1.824-1.823 8.948 8.948 1.823 1.825-1.823 1.823z"/><path fill="#8F765A" d="M21.897 14.613l-1.823-1.824-8.948-8.95-1.824 1.824 8.948 8.948-8.948 8.948 1.824 1.825 8.948-8.948z"/></g><g transform="translate(2010)"><path fill="#F7F5F6" d="M128.9 86c-.9 0-1.7-.2-2.5-.5l-.5-.2-62.1-41.5-7.2-11.9L70.3 34l61.6 41.1c.1.1.2.1.3.2.1 0 .1.1.2.2l.3.2.1.2c2.1 1.9 2.5 5.2.9 7.6-1 1.5-2.9 2.5-4.8 2.5z"/><path fill="#A8967D" d="M57.8 32.7l12.3 1.9 61.5 41c.1 0 .1.1.2.1s.1.1.2.1l.1.1.3.2c1.9 1.7 2.3 4.7.8 6.8-1 1.5-2.6 2.4-4.4 2.4-.8 0-1.5-.2-2.2-.5l-.4-.2-62-41.4-6.4-10.5m-2.4-1.6l7.9 13.1 62.8 41.9V86c.9.4 1.8.6 2.7.6 2.1 0 4.2-1 5.4-2.9 1.8-2.7 1.3-6.3-1-8.4v-.1l-.6-.4c-.1-.1-.2-.1-.2-.2-.1-.1-.2-.1-.3-.2l-61.6-41-15.1-2.3z"/><path stroke="#FFCE37" stroke-width="1.185" stroke-miterlimit="10" d="M67 41.6l54.5 36.3M69.6 37.7L124.1 74" fill="none"/><path fill="#A8967D" d="M130.5 74.3c-1.6 3.6-3.7 6.9-6.5 9.7l-6.2-4.1c3.1-2.6 5.2-5.9 6.5-9.7l6.2 4.1z"/><path stroke="#A8967D" stroke-width="1.185" stroke-miterlimit="10" d="M64.1 43.9c1 .7 7.4-9 6.4-9.6" fill="none"/><path fill="#A8967D" stroke="#A8967D" stroke-width="1.039" stroke-miterlimit="10" d="M58 34.5c.9-.5 1.3-1.2 1.4-2.1l-2.6-.3 1.2 2.4z"/><path fill="#F7F5F6" stroke="#A8967D" stroke-width="1.148" d="M136.2 25.8L65.3 77.1l8.4 11.6 70.9-51.3-8.4-11.6zM73 80.4c-.9-1.2-.6-3 .6-3.9 1.2-.9 3-.6 3.9.6.9 1.2.6 3-.6 3.9-1.2.9-3 .6-3.9-.6z"/><g stroke="#F58220" fill="none"><path d="M130.4 47.7l-2.5-3.5M126 50.9l-5.1-6.9M139.5 41.1l-2.5-3.4M135 44.4l-5-7M121.5 54.2l-2.5-3.5M116.9 57.5l-5.1-7M112.4 60.8l-2.5-3.5M107.8 64.1l-5-7M103.4 67.3l-2.6-3.5M98.9 70.6l-5.1-7M94.3 73.9l-2.5-3.5M89.8 77.1l-5-7"/></g><path stroke="#A8967D" stroke-width="1.203" d="M136.103 25.84l8.442 11.667L73.66 88.8l-8.44-11.666z" fill="none"/><path fill="#F7F5F6" stroke="#A8967D" stroke-miterlimit="10" d="M108.9 0v21.5l-4.9 3.8h-7.2l-5-4.6-.5-3.3c0-.3-.5-.1-.5-.4V.1c-6 3.1-10 9.5-10 16.9 0 8.2 5 15.2 13 17.8v58.9c0 3.5 2.6 6.3 6 6.3 3.5 0 6-2.8 6-6.3V34.9c8-2.6 13.1-9.6 13.1-17.9.2-7.5-4-13.9-10-17zm-8.5 96.1c-1.3 0-2.4-1.1-2.4-2.4 0-1.3 1.1-2.4 2.4-2.4 1.3 0 2.4 1.1 2.4 2.4-.1 1.3-1.1 2.4-2.4 2.4z"/><path fill="#65C4AF" d="M97.6 24.4l-3.9-3.9V15l3.9-3.9h5.5L107 15v5.5l-3.9 3.9z"/><path fill="#fff" d="M99.4 20.1L98 18.8v-2l1.4-1.3h1.9l1.4 1.3v2l-1.4 1.3z"/></g><g transform="translate(2220)"><path fill="#F7F5F6" d="M32.2 21.5c-.2 0-.4 0-.6-.1l-.1-.1-15.6-10.4L14.1 8l3.5.5 15.6 10.4c.5.5.6 1.3.2 1.9-.2.5-.7.7-1.2.7z"/><path fill="#A8967D" d="M14.4 8.2l3.1.5L32.9 19h.2l.1.1c.5.4.6 1.2.2 1.7-.2.4-.7.6-1.1.6-.2 0-.4 0-.6-.1h-.1L16.1 10.8l-1.7-2.6m-.6-.4l2 3.3 15.7 10.5c.2.1.5.2.7.2.5 0 1-.3 1.4-.7.5-.7.3-1.6-.3-2.1l-.1-.1H33L17.6 8.4l-3.8-.6z"/><path stroke="#FFCE37" stroke-width=".296" stroke-miterlimit="10" d="M16.8 10.4l13.6 9.1m-13-10.1L31 18.5" fill="none"/><path fill="#A8967D" d="M32.6 18.6c-.4.9-.9 1.7-1.6 2.4l-1.6-1c.8-.7 1.3-1.5 1.6-2.4l1.6 1z"/><path stroke="#A8967D" stroke-width=".296" stroke-miterlimit="10" d="M16 11c.2.2 1.8-2.2 1.6-2.4" fill="none"/><path fill="#A8967D" stroke="#A8967D" stroke-width=".26" stroke-miterlimit="10" d="M14.5 8.6c.2-.1.3-.3.3-.5l-.6-.1.3.6z"/><path fill="#F7F5F6" stroke="#A8967D" stroke-width=".287" d="M34.1 6.5L16.3 19.3l2.1 2.9L36.2 9.4l-2.1-2.9zM18.3 20.1c-.2-.3-.2-.7.2-1 .3-.2.7-.2 1 .2.2.3.2.7-.2 1-.4.2-.8.1-1-.2z"/><g stroke="#F58220" fill="none"><path d="M32.6 11.9l-.6-.8M31.5 12.7L30.2 11M34.9 10.3l-.7-.9M33.8 11.1l-1.3-1.7M30.4 13.5l-.7-.8M29.2 14.4L28 12.6M28.1 15.2l-.6-.9M27 16l-1.3-1.7M25.8 16.8l-.6-.8M24.7 17.6l-1.2-1.7M23.6 18.5l-.7-.9M22.5 19.3l-1.3-1.8"/></g><path stroke="#A8967D" stroke-width=".301" d="M34.01 6.44l2.112 2.916L18.38 22.194l-2.11-2.916z" fill="none"/><path fill="#F7F5F6" stroke="#A8967D" stroke-miterlimit="10" d="M27.9 0v5.3l-1.9 1h-1.8L23 5.2V.1c-1 .8-2.4 2.4-2.4 4.2 0 2.1 1.4 3.8 3.4 4.5v14.6c0 1 .6 1.6 1.5 1.6s1.6-.6 1.6-1.6V8.7c2-.6 3.4-2.4 3.4-4.5-.2-1.8-1.6-3.4-2.6-4.2z"/><path fill="#65C4AF" d="M24.6 5.7l-1.2-1.1V2.9l1.2-1.1h1.6l1.2 1.1v1.7l-1.2 1.1z"/><path fill="#fff" d="M25.1 4.5l-.4-.5v-.5l.4-.4h.6l.4.4V4l-.4.5z"/></g><g transform="translate(2280)"><circle fill="#F7F5F6" stroke="#A8967D" stroke-width="2.144" stroke-miterlimit="10" cx="72.9" cy="23.5" r="21.8"/><circle fill="#E9E4DC" cx="72.9" cy="23.5" r="2.4"/><path fill="#E9E4DC" d="M75.8 37.2c-1.8-2.6-1.3-6.1 1.3-7.9 2.5-1.8 6.1-1.3 7.9 1.3 1.8 2.5 1.3 6.1-1.3 7.9-1 .7-2.2 1.1-3.3 1.1-1.8 0-3.5-.8-4.6-2.4zm-13.9 1.2c-2.5-1.9-3.1-5.4-1.2-8 1.9-2.5 5.4-3.1 8-1.2 2.5 1.9 3.1 5.4 1.2 8-1.1 1.5-2.8 2.3-4.6 2.3-1.2 0-2.4-.3-3.4-1.1zm17.8-17.1c-1-3 .7-6.2 3.7-7.2s6.2.7 7.2 3.7-.7 6.2-3.7 7.2c-.6.2-1.2.3-1.7.3-2.5-.1-4.7-1.6-5.5-4zm-20.8 3.6c-3-1-4.6-4.2-3.6-7.2 1-3 4.2-4.6 7.2-3.6 3 1 4.6 4.2 3.6 7.2-.8 2.4-3 3.9-5.4 3.9-.6 0-1.2-.1-1.8-.3zm14-7.8c-3.1 0-5.7-2.4-5.7-5.5s2.6-5.5 5.7-5.5 5.7 2.4 5.7 5.5c0 3.2-2.6 5.5-5.7 5.5z"/><circle fill="#F7F5F6" stroke="#A8967D" stroke-width="2.144" stroke-miterlimit="10" cx="119.9" cy="23.5" r="21.8"/><circle fill="#E9E4DC" cx="119.9" cy="23.5" r="2.4"/><path fill="#E9E4DC" d="M122.8 37.2c-1.8-2.6-1.3-6.1 1.3-7.9 2.5-1.8 6.1-1.3 7.9 1.3 1.8 2.5 1.3 6.1-1.3 7.9-1 .7-2.2 1.1-3.3 1.1-1.8 0-3.5-.8-4.6-2.4zm-13.9 1.2c-2.5-1.9-3.1-5.4-1.2-8 1.9-2.5 5.4-3.1 8-1.2 2.5 1.9 3.1 5.4 1.2 8-1.1 1.5-2.8 2.3-4.6 2.3-1.2 0-2.4-.3-3.4-1.1zm17.8-17.1c-1-3 .7-6.2 3.7-7.2s6.2.7 7.2 3.7-.7 6.2-3.7 7.2c-.6.2-1.2.3-1.7.3-2.5-.1-4.7-1.6-5.5-4zm-20.8 3.6c-3-1-4.6-4.2-3.6-7.2 1-3 4.2-4.6 7.2-3.6 3 1 4.6 4.2 3.6 7.2-.8 2.4-3 3.9-5.4 3.9-.6 0-1.2-.1-1.8-.3zm14-7.8c-3.1 0-5.7-2.4-5.7-5.5s2.6-5.5 5.7-5.5 5.7 2.4 5.7 5.5c0 3.2-2.5 5.5-5.7 5.5z"/><path fill="#F7F5F6" stroke="#A8967D" stroke-width="2.144" stroke-miterlimit="10" d="M169.1 51h6.8v27.9h-6.8z"/><path fill="#F7F5F6" stroke="#A8967D" stroke-width="2" stroke-miterlimit="10" d="M139 56.8V44.1c0-1.3-.9-2-2.2-2h-.7c-4.3 3-10 6.2-16.3 6.2s-11.9-3.2-16.3-6.2H89.1c-4.3 3-10 6.2-16.3 6.2S61 45.1 56.6 42.1h-.8c-1.3 0-2.8.7-2.8 2v44.3c0 1.3 1.5 1.7 2.8 1.7h81c1.3 0 2.2-.4 2.2-1.7V73l27 5.8V51l-27 5.8z"/><path fill="#E9E4DC" d="M24.2 49.1h10V100h-10z"/><path fill="#F7F5F6" d="M26.2 51.1h6v6h-6zm0 8h6v6h-6zm0 8h6v6h-6zm0 8h6v6h-6zm0 8h6v6h-6zm0 8h6v6h-6zm0 8h6v.9h-6z"/><path fill="#E9E4DC" d="M58.2 49.1h10V100h-10z"/><path fill="#F7F5F6" d="M60.2 51.1h6v6h-6zm0 8h6v6h-6zm0 8h6v6h-6zm0 8h6v6h-6zm0 8h6v6h-6zm0 8h6v6h-6zm0 8h6v.9h-6z"/><path fill="#FFCE37" d="M34.2 59.1h24v14h-24z"/><path fill="#F58220" d="M34.2 75.1h24v14h-24z"/><path fill="#65C4AF" d="M34.2 91.1h24v8.9h-24z"/><path fill="#E9E4DC" d="M34.2 57.1h24v2h-24zm0 16h24v2h-24zm0 16h24v2h-24z"/></g><g transform="translate(2490)"><circle fill="#F7F5F6" stroke="#A8967D" stroke-miterlimit="10" cx="15.6" cy="5.9" r="5.3"/><circle fill="#E9E4DC" cx="15.6" cy="5.9" r=".6"/><path fill="#E9E4DC" d="M16.3 9.2c-.4-.6-.3-1.5.3-1.9.6-.5 1.5-.3 1.9.3.5.6.3 1.5-.3 1.9-.2.2-.5.3-.8.3-.4 0-.8-.2-1.1-.6zm-3.4.3c-.6-.5-.8-1.3-.3-1.9.5-.6 1.4-.8 2-.3.6.5.8 1.3.3 1.9-.3.4-.7.6-1.1.6-.3 0-.6-.1-.9-.3zm4.4-4.2c-.2-.7.2-1.5.9-1.8.7-.2 1.5.2 1.8.9.2.8-.2 1.6-1 1.8-.1 0-.3.1-.4.1-.6 0-1.1-.4-1.3-1zm-5.1.9c-.7-.2-1.1-1-.9-1.8.2-.7 1-1.1 1.8-.9.7.2 1.1 1 .9 1.8-.2.6-.7 1-1.3 1-.2 0-.4 0-.5-.1zM15.6 4c-.8 0-1.2-.5-1.2-1.2 0-.8.6-1.3 1.6-1.3 0 0 1.2.5 1.2 1.2 0 .8-.7 1.3-1.6 1.3z"/><circle fill="#F7F5F6" stroke="#A8967D" stroke-miterlimit="10" cx="27.1" cy="5.9" r="5.3"/><circle fill="#E9E4DC" cx="27.1" cy="5.9" r=".6"/><path fill="#E9E4DC" d="M27.8 9.2c-.4-.6-.3-1.5.3-1.9.6-.5 1.5-.3 1.9.3.5.6.3 1.5-.3 1.9-.2.2-.5.3-.8.3-.4 0-.8-.2-1.1-.6zm-3.4.3c-.6-.5-.8-1.3-.3-1.9.5-.6 1.3-.8 1.9-.3.6.5.8 1.3.3 1.9-.3.4-.7.6-1.1.6-.2 0-.5-.1-.8-.3zm4.4-4.2c-.2-.7.2-1.5.9-1.8.7-.2 1.5.2 1.8.9.2.7-.2 1.5-.9 1.8-.1 0-.3.1-.4.1-.7 0-1.2-.4-1.4-1zm-5.1.9c-.7-.2-1.1-1-.9-1.8.2-.7 1-1.1 1.8-.9.7.2 1.1 1 .9 1.8-.2.6-.7 1-1.3 1-.2 0-.4 0-.5-.1zM27.1 4c-.8 0-1.5-.5-1.5-1.2.1-.8.4-1.3 1.4-1.3 0 0 1.5.5 1.5 1.2 0 .8-.6 1.3-1.4 1.3z"/><path fill="#F7F5F6" stroke="#A8967D" stroke-miterlimit="10" d="M40.3 12.6H42v6.8h-1.7zM31.5 14v-3.1c0-.3.1-.4-.2-.4h-.2c-1.1 1-2.5 1.5-4 1.5s-2.9-.5-4-1.5h-3.5c-1.1 1-2.5 1.5-4 1.5s-2.9-.5-4-1.5h-.2c-.3 0-.9.1-.9.4v10.8c0 .3.6.7.9.7h19.8c.3 0 .2-.4.2-.7V18l7 1.4v-6.8L31.5 14z"/><path fill="#F7F5F6" d="M8 13h1v12H8zm4 0h1v12h-1zm-3 1h3v1H9zm0 3h3v1H9z"/><path fill="#FFCE37" d="M9 15h3v2H9z"/><path fill="#F7F5F6" d="M9 20h3v1H9z"/><path fill="#F48220" d="M9 18h3v2H9z"/><path fill="#65C4AF" d="M9 21h3v2H9z"/></g><g transform="translate(2550)"><path fill="#7C7C7C" d="M45 0H0v45c0 2.8 2.2 5 5 5h45V0h-5z"/><path fill="#fff" d="M22 14.6h6v20h-6v-20zm-7 7h20v6H15v-6z"/><circle stroke="#fff" stroke-width="4" stroke-miterlimit="10" cx="25" cy="24.6" r="17.3" fill="none"/></g><g transform="translate(2610)"><path fill="#676767" d="M45 0H0v45c0 2.8 2.2 5 5 5h45V0h-5z"/><path fill="#fff" d="M22 14.6h6v20h-6v-20zm-7 7h20v6H15v-6z"/><circle stroke="#fff" stroke-width="4" stroke-miterlimit="10" cx="25" cy="24.6" r="17.3" fill="none"/></g></svg>